<?xml version="1.0" encoding="UTF-8"?>
<!DOCTYPE svg PUBLIC "-//W3C//DTD SVG 1.1//EN" "http://www.w3.org/Graphics/SVG/1.1/DTD/svg11.dtd">
<!-- Creator: CorelDRAW 2021 (64-Bit) -->
<svg xmlns="http://www.w3.org/2000/svg" xml:space="preserve" width="182.654mm" height="148.027mm" version="1.1" style="shape-rendering:geometricPrecision; text-rendering:geometricPrecision; image-rendering:optimizeQuality; fill-rule:evenodd; clip-rule:evenodd"
viewBox="0 0 2624.33 2126.82"
 xmlns:xlink="http://www.w3.org/1999/xlink"
 xmlns:xodm="http://www.corel.com/coreldraw/odm/2003">
 <defs>
  <style type="text/css">
   <![CDATA[
    .str1 {stroke:black;stroke-width:60.82;stroke-linecap:round;stroke-linejoin:round;stroke-miterlimit:22.9256}
    .str0 {stroke:#00A9C0;stroke-width:60.82;stroke-linecap:round;stroke-linejoin:round;stroke-miterlimit:22.9256}
    .fil0 {fill:none}
    .fil3 {fill:#1D1F23}
    .fil2 {fill:#1E1F24}
    .fil1 {fill:black;fill-rule:nonzero}
   ]]>
  </style>
 </defs>
 <g id="Layer_x0020_1">
  <metadata id="CorelCorpID_0Corel-Layer"/>
  <path class="fil0" d="M1561.3 1942.71c-90.63,15.23 -184.91,23.26 -281.7,23.26 -706.7,0 -1279.6,-428.43 -1279.6,-956.92 0,-528.49 572.9,-956.92 1279.6,-956.92 706.7,0 1279.6,428.43 1279.6,956.92 0,71.76 -8.45,142.33 -30.58,208.91 -135.01,406.09 -481.34,626.81 -967.32,724.74z"/>
  <path class="fil0" d="M1605.93 1996.86c-92.5,16.08 -188.71,24.57 -287.49,24.57 -721.23,0 -1305.9,-452.51 -1305.9,-1010.72 0,-558.2 584.67,-1010.72 1305.9,-1010.72 721.23,0 1305.9,452.51 1305.9,1010.72 0,75.79 -8.62,150.34 -31.21,220.66 -137.79,428.92 -491.23,662.05 -987.2,765.49z"/>
  <path class="fil1" d="M1905.52 1970.95c2.09,6.46 2.46,11.69 1.13,15.69 -1.33,4 -4.43,7.34 -9.27,10.01 5.83,-1.09 10.58,-0.37 14.25,2.17 3.68,2.54 6.56,7.03 8.65,13.49l11.48 35.53c2.36,7.32 2.56,13.17 0.57,17.53 -1.99,4.37 -6.61,7.73 -13.89,10.08l-62.09 20.06 2.4 -14.09 -40.92 -126.6 -10.19 -10.02 60.83 -19.66c7.27,-2.35 12.99,-2.33 17.16,0.04 4.17,2.38 7.43,7.23 9.8,14.55l10.09 31.22zm-5.45 49.08c-1.35,-4.16 -3.41,-7.19 -6.17,-9.06 -2.77,-1.88 -6.39,-2.1 -10.87,-0.65l-22.02 7.12 17.05 52.75 22.02 -7.12c4.48,-1.45 7.3,-3.71 8.47,-6.78 1.17,-3.07 1.06,-6.76 -0.33,-11.07l-8.14 -25.19zm-44.35 -18.96l21.39 -6.91c4.33,-1.4 7.07,-3.67 8.22,-6.82 1.15,-3.14 1.05,-6.8 -0.3,-10.96l-6.75 -20.89c-1.39,-4.31 -3.46,-7.36 -6.21,-9.17 -2.75,-1.81 -6.29,-2.01 -10.62,-0.61l-21.39 6.92 15.66 48.45zm100.21 -15.18l21.03 53.98 10.76 9.41 -32.66 12.73 1.56 -14.21 -48.3 -123.98 -10.76 -9.41 59.97 -23.37c7.12,-2.77 12.83,-3.1 17.13,-0.97 4.3,2.13 7.85,6.78 10.64,13.95l14.87 38.16c2.52,6.47 3.36,11.97 2.53,16.5 -0.84,4.53 -3.57,8.35 -8.2,11.45l38.32 47.97 13.64 8.29 -33.89 13.2 -1.72 -12.93 -27.32 -36.71c-2.98,-4.02 -5.94,-6.63 -8.85,-7.84 -2.92,-1.21 -6.63,-0.94 -11.15,0.83l-7.6 2.96zm12.78 -64.96c-1.64,-4.22 -3.89,-7.15 -6.74,-8.79 -2.85,-1.64 -6.46,-1.61 -10.84,0.1l-20.74 8.08 19.14 49.13 20.74 -8.08c4.38,-1.71 7.07,-4.13 8.05,-7.27 0.99,-3.14 0.66,-6.81 -0.99,-11.03l-8.62 -22.14zm159.7 54.13l11.98 8.56 -32.46 14.35 -0.08 -13.82 -11.66 -17.11 -32.66 14.44 5.01 20.05 10.17 9.36 -32.05 14.17 1.93 -14.71 -32.93 -144.78 27.82 -12.3 84.94 121.78zm-69.51 -10.58l27.82 -12.3 -49.23 -73.73 21.41 86.04zm7.97 -122.83l35.54 -20.43 4.02 12.3 71.75 68.64 -47.48 -82.59 -12.05 -7.69 28.85 -16.59 0.39 14.39 72.63 126.33 -18.92 10.88 -93.61 -87.65 54.81 95.34 12.05 7.69 -29.05 16.7 -0.39 -14.39 -66.31 -115.35 -12.24 -7.58zm84.79 -48.34l53.42 -35.91c6.34,-4.26 11.84,-5.82 16.5,-4.69 4.66,1.14 9.14,4.9 13.43,11.28l63.63 94.65c4.29,6.39 6.09,11.95 5.38,16.7 -0.71,4.74 -4.23,9.25 -10.57,13.51l-53.42 35.91 -1.58 -14.21 -74.23 -110.42 -12.56 -6.83zm70.85 -9.19c-2.53,-3.76 -5.36,-6.12 -8.5,-7.11 -3.14,-0.98 -6.66,-0.16 -10.56,2.47l-18.47 12.42 68.93 102.53 18.47 -12.42c3.9,-2.62 5.99,-5.57 6.27,-8.85 0.28,-3.28 -0.85,-6.79 -3.37,-10.55l-52.77 -78.5zm132.43 59.62l-28 21.08 -2.34 -14.1 -80.01 -106.31 -12.9 -6.15 28 -21.08 2.34 14.1 80.01 106.31 12.9 6.15zm-93.31 -125.82l30.3 -27.62 6.58 11.15 84.86 51.55 -64.17 -70.41 -13.42 -4.91 24.6 -22.42 3.49 13.97 98.17 107.7 -16.13 14.7 -110.31 -65.4 74.08 81.28 13.42 4.91 -24.76 22.57 -3.49 -13.97 -89.63 -98.33 -13.58 -4.76zm137.04 -90.69c-2.5,-2.41 -5.07,-3.7 -7.71,-3.9 -2.64,-0.19 -5.18,0.98 -7.62,3.53l-11.46 11.92c-2.44,2.54 -3.49,5.1 -3.14,7.68 0.35,2.58 1.77,5.07 4.28,7.47l72.77 69.93c2.5,2.4 5.05,3.73 7.63,3.97 2.59,0.25 5.1,-0.9 7.55,-3.45l11 -11.45c2.44,-2.54 3.52,-5.13 3.22,-7.76 -0.3,-2.63 -1.7,-5.15 -4.2,-7.55l-27.25 -26.18 -13.72 -4.01 24.29 -25.27 4.55 13.55 31.98 30.73c5.55,5.33 8.45,10.42 8.72,15.26 0.26,4.84 -2.25,10.02 -7.55,15.52l-25.81 26.86c-5.29,5.51 -10.34,8.2 -15.14,8.08 -4.79,-0.12 -9.97,-2.85 -15.51,-8.19l-82.23 -79.02c-5.55,-5.33 -8.48,-10.39 -8.8,-15.18 -0.31,-4.79 2.17,-9.94 7.47,-15.45l25.81 -26.86c5.29,-5.51 10.36,-8.23 15.21,-8.16 4.85,0.07 10.04,2.78 15.59,8.11l25.13 24.15 -23.15 7.1 -11.91 -11.45z"/>
  <path class="fil0 str0" d="M1780.75 2033.43c-479.79,142.77 -1231.46,51.84 -1562.35,-363.84"/>
  <path class="fil2" d="M1095.32 1169.83l17.19 0c-5.32,31.42 1.17,67.23 19.55,82.52 12.31,-4.64 19.09,-12.88 32.68,-20.6 54.85,-31.18 74.06,-9.75 113.69,-46.76 33.59,31.34 32.88,16.69 78.71,31.65 44.28,14.46 50.19,29.07 67.6,35.89 18.66,-16.15 25.06,-51.68 19.83,-82.7l13.14 0 0 200.82 -362.39 0 0 -200.82zm95.01 0l12.94 0c-4.25,1.48 -8.6,1.33 -12.94,0zm-20.71 129.91c19.96,-73.85 197.89,-73.41 217.83,0 -13.42,21.82 -46.15,31.89 -81.56,31.34 -16.44,-12.53 -14.83,-17.27 -27.46,-28.06 -20.21,17.19 -12.05,33.21 -53.32,26.68 -27.28,-4.31 -44.85,-13.73 -55.5,-29.96z"/>
  <path class="fil3" d="M1595.43 1505.52c2.9,-2.37 0.58,-0 2.8,-2.96 0.14,-0.18 1.75,-2.87 1.92,-3.21 5.5,-10.92 10.03,-36.7 11.83,-49.27 3,-20.95 4.68,-43.06 7.29,-64.56 8.24,-67.83 11.56,-53.52 33.16,-99.76 19.13,-40.96 19.42,-3.71 21.03,-49.57l-77.62 -68.07c-14.35,20.75 -21.02,-14.11 -60.17,59.66 -6.68,12.58 -12.74,33.31 -16.17,36.07 -12.12,9.74 -52.48,23.03 -87.62,59.72 -21.81,22.77 -22.23,48.41 -49.87,36.42 -34.17,-14.81 -49.46,-64.64 -69.93,-71.81 -15.75,-5.52 -25.42,8.25 -32.34,14.49 -19.21,-13.44 -28.42,-34.85 -55.89,13.05 -14.19,24.75 -55.82,79 -77.18,30.31 -16.02,-36.54 -42.66,-45.69 -75.53,-65.06 -40.39,-23.79 -29.23,-8.14 -39.53,-35.68 -10.3,-27.51 -33.72,-58.09 -50.36,-76.19 -15.23,-16.56 -20.88,-6.75 -39.6,-22.19l-53.28 103.76c26.32,85.05 25.92,41.79 35.94,126.72 3.82,32.34 22.8,110.59 39.14,128.82 1.36,-20.67 8.76,-81.21 14.2,-100.06 2.76,6.71 5.66,48.08 6.89,55.99 7.96,50.75 25.99,119.81 58.99,147.95 -3.24,-14.3 -20.04,-87.56 -21.2,-103.81l19.13 64.76c12.68,32.93 42.18,98.7 62.67,115.51l-6.72 -71.17c27.53,20.22 60.34,132.64 107.25,136.89 20.26,1.83 26.49,2.94 42.02,13.24 7.04,-6.41 19.12,-26.68 33.04,-26.66 11.75,0.01 29.24,15.34 32.9,23.34 6.14,-1.72 5.57,-3.62 11.79,-6.14 33.7,-13.63 37.3,8.81 70.35,-27.58 16.44,-18.11 15.39,-19.46 28.37,-38.59l29.06 -69.11c0.21,0.33 0.41,32.36 0.5,32.6l1.21 3.52c2.07,8.68 0.25,23.65 0.52,30.76l16.3 -31.65c6.7,-9.76 12.49,-18.99 18.49,-30.07 11.93,-22.01 32.16,-112.21 36.09,-119.06 0.3,16.67 -7.85,88.86 -9.35,103.11 29.86,-34.71 41.26,-58.12 55.31,-111.77 3.26,-12.47 6.03,-25.63 7.02,-38.44 0.52,-6.69 9.2,-57.42 11.82,-61.61 3.67,19.78 4.71,85.82 5.31,107.36z"/>
  <circle class="fil3" cx="1060.11" cy="828.27" r="18.55"/>
  <circle class="fil3" cx="1496.49" cy="829.04" r="18.55"/>
  <path class="fil3" d="M1075.97 360.07l24.75 0c7.24,0.25 14.44,0.66 21.34,1.09 12.05,0.75 27.2,3.78 38.1,7.24 40.17,12.76 49.63,15.74 85.46,42.63l32.79 28.71c0.09,-0.19 0.4,0.33 0.59,0.5 2.29,-1.54 3.21,-2.71 5.49,-4.39l14.54 -12.92c2.52,-2.55 2.85,-2.43 5.43,-4.45 1.89,-1.48 2.65,-2.77 4.47,-4.31 1.98,-1.68 2.78,-1.99 4.94,-3.85 2.13,-1.83 2.8,-2.03 4.93,-3.86l8.27 -6.12c1.29,-0.98 1.19,-0.96 2.45,-1.84 15.11,-10.57 31.65,-18.2 49.06,-24.46l7.69 -2.33c18.96,-6.17 30.4,-6.66 48.39,-9.67l4.73 -0.91c2.62,-0.17 6.17,0.32 8.69,0.11 3.32,-0.26 -0.62,0.15 1.96,-0.3 2.56,-0.45 5.5,-0.73 8.67,-0.87l12.26 0c12.75,0.47 26.66,2.18 36.01,3.74 36.82,6.15 61.11,14.54 97.45,29.95l19.06 9.49c13.6,7.16 26.93,15.33 39.09,24.6 2.24,1.71 2.79,2.03 4.92,3.86l42.2 40.17c20.54,26.25 39.54,53.68 55.06,83.32 1.51,2.89 1.81,2.74 3.32,5.47 1.41,2.55 1.82,4.03 3.36,6.53l29.19 52.08 55.74 81.54c7.36,7.42 14.53,15.76 22.54,22.49 37.02,31.08 93.31,53.8 138.12,22.27 2.39,-1.68 3.36,-2.79 6.13,-4.85l7.53 -7.96c21.26,-28.35 24.74,-58.45 16.61,-93.29 -3.95,-16.92 -10.21,-32.78 -17.85,-48.05l-12 -20.94c-2.49,-3.75 -4.29,-6.21 -6.86,-9.62 -6.99,-9.28 -14.24,-18.9 -22.42,-27l-8.97 -9.29c-0.15,-0.18 -0.34,-0.45 -0.49,-0.64l-6.47 -7.08c-4.94,-4.93 -12.97,-11.63 -14.55,-18.4l26.57 -8.57c18.33,-4.68 41.96,-3.59 60.4,-0.34l13.41 2.97c14.52,3.62 28.69,9.36 41.67,16.54l14.34 8.72c10.34,6.25 18.56,14.36 28.11,21.31 13.29,9.67 28.69,29.83 37.78,43.49 8.27,12.42 17.28,28.15 23.08,42.81 3.24,8.19 6.53,15.14 8.99,23.96 2.43,8.71 5.04,16.64 6.78,25.07 7.27,35.12 10.03,78.83 4.4,118.12 -5.2,36.27 -16.51,66.55 -32.33,98.36 -13.53,27.21 -37.5,58.57 -61.86,76.51l-13.98 10.18c-2.57,1.98 -2.51,1.71 -5.35,3.43l-26.07 14.56c-4.25,2.13 -6.98,3.11 -11.34,5.13 -24.03,11.14 -47.94,16.25 -74.96,21.68 -13.75,2.76 -42.45,7.6 -57.2,7.6 1.04,4.46 5.59,12.27 7.69,16.47 24.64,49.32 20.41,43.17 31.84,88.97 13.85,55.46 28.01,119.64 41.1,176.36 1.58,6.83 3.94,13.03 3.94,20.22 -13.44,0 -59.84,-6.62 -75.51,-9.05 -95.17,-11.87 -184.44,-17 -278.16,-28.25 -17.17,-1.58 -30.43,-4.18 -40.61,-18.69 -2.26,-3.23 -13.2,-20.61 -13.75,-23.59 -0.07,-0.35 -1.53,-0.2 -1.7,-0.4l-56.92 -62.1c-11.16,-14.42 -25.16,-15.25 -41.78,-3.49l-60.83 76.15 -67.81 14.91 -212.58 2.62 -78.7 -17.53 -53.46 -72.05c-11.89,-16.02 -34.46,-17.18 -45.47,-3.8l-54.49 66.19 -2.2 0c-1.19,5.1 -6.32,13.91 -9.22,18.23 -8.2,12.2 -16.32,19.28 -31.49,22.33 -66.92,13.44 -235.03,25.74 -301.92,30.85 -21.83,1.67 -41.9,5.73 -63.72,7.67 0,-31.58 27.56,-124.14 34.5,-158.79 2.7,-13.47 5.26,-26.8 8.55,-39.78 15.64,-61.71 15.2,-42.01 34.18,-86.62 2.3,-5.41 5.76,-11.04 6.24,-16.83 -5.71,0 -11.45,-0.82 -16.93,-1.74 -67.17,-11.36 -117.12,-15.19 -170.59,-60.04 -9.32,-7.82 -18.42,-18.11 -26.36,-27.46l-15.21 -19.94c-12.51,-18.5 -10.93,-17.36 -21.6,-35.31l-10.26 -20.68c-18.56,-46.08 -25.7,-81.25 -25.7,-133.55 0,-49.97 17.67,-111.22 48.14,-151.75 6.02,-8.01 12.01,-16.64 19.12,-23.71l17.07 -15.99c24.12,-20.08 49.61,-35.03 81.27,-42.72 29.18,-7.09 63.03,-8.22 92.77,-2.23 4.38,0.88 8.85,2.14 12.9,2.47 -2.46,3.67 -3.01,4.7 -6.31,7.96 -2.66,2.63 -4.49,4.5 -7.14,7.14 -2.65,2.64 -4.5,4.49 -7.15,7.12l-24.73 30.19c-35.85,47.59 -69.17,113.99 -37.42,172.01 13.96,25.5 43.19,39.16 71.77,39.16 10.23,0 24.27,-2.9 32.01,-5.33 13.57,-4.27 25.71,-10.06 37.19,-17.73 3.67,-2.45 6.5,-4.6 10.18,-7.39 24.2,-18.32 43.55,-43 60.32,-68.17l14.29 -21.95c21.39,-33.72 40.22,-69.61 58.72,-104.92 2.47,-4.71 4.05,-7.63 6.72,-11.95 2.51,-4.04 4.44,-7.72 7.01,-11.66 4.83,-7.41 9.57,-14.44 14.98,-21.25l4.46 -5.57c10.07,-12.51 28.07,-31.06 40.77,-40.38 3.5,-2.57 6.6,-5.53 10.33,-8.34 36.39,-27.48 74.7,-49.32 119.11,-63.2 17.25,-5.39 49.31,-12.09 68.38,-13.02zm321.65 724.85c-4.25,0.35 -6.25,1.73 -12,1.02 -18.62,-2.28 -24.63,-1.65 -35.59,17.29 -7.51,12.99 -11.72,28.02 -12.85,43.22 -0.41,5.49 1.13,7.02 1.13,13.16 21.93,14.68 42.04,13.23 58.21,-8.78 9.39,-12.79 12.03,-16.13 19.77,-30.75 19.33,5.16 30.75,47.17 30.75,70.29 0,15.23 -4.15,38.76 -11.63,49.87 -13.49,20.04 -8.04,12.02 -42.15,-8.17 -3,-1.78 -4.78,-2.89 -8.45,-4.73 -13.03,-6.54 -36.17,-14.51 -50.05,-16.95 -7.99,-1.41 -14.89,-2.07 -22.58,-3.78 -9.93,-2.19 -26.96,23.38 -34.71,17.59 -3,-2.24 -7.81,-5.23 -9.71,-8.07 -21.43,14.35 -5.92,-12.36 -40.83,-5.35l-12.88 2.61c-0.32,0.07 -0.6,0.12 -0.92,0.19l-16.31 4.32c-0.28,0.09 -0.57,0.2 -0.86,0.29 -0.29,0.1 -0.57,0.2 -0.86,0.3 -20.51,7.16 -26.96,11.13 -44.58,23.51 -17.41,12.23 -18.52,13.32 -26.34,-0.05 -16.16,-27.61 -15.29,-66.7 -4,-95.09 3.53,-8.88 13.58,-24.67 22.64,-26.78l16.21 23.33c13.27,15.43 33.83,41.28 54.93,20.35 2.81,-2.79 3.45,-3.03 4.83,-7.25 7.48,-22.88 -6.69,-47.35 -15.19,-63.16 -5.33,-9.93 -9.98,-7.33 -26.73,-7.31 -12.3,0.01 -20.87,0.6 -20.87,-16.48 0,-9.39 3.68,-15.3 8.85,-20.8l1.7 -1.59c15.49,-13.78 31.5,-17.15 54.24,-17.15 16.95,0 28.94,3.4 38.41,12.3 0.19,0.18 0.43,0.41 0.61,0.58l6.66 7.74c0.14,0.17 0.34,0.43 0.48,0.59 4.91,5.88 8.12,11.65 13.16,15.03l18.67 -23.07c10.64,-14.67 35.23,-12.08 53.82,-12.08 18.18,0 49.42,15.2 49.42,35.14 0,14.79 -2.44,10.29 -4.39,18.67zm303.12 -18.67c6.45,0.54 25.03,12.63 30.75,16.47l87.86 53.82c1.61,-3.35 4.39,-17.88 4.39,-23.06 9.31,4.93 18.8,12.95 31.41,18.01 33.95,13.64 48.5,16.46 60.99,54.33 8.03,24.36 12.2,39.63 18.31,64.06 0.88,3.52 2.38,11.69 3.52,14.06 -5.96,-0.13 -16.36,-3.7 -21.03,-5.33 -52.55,-18.42 -71.02,-89.29 -88.8,-101.2l1.96 27.7c0.35,2.31 0.09,4.04 0.33,6.26 0.23,2.15 1.07,7.56 1.63,10.46 1.46,7.55 2.67,13.31 4.73,19.43l5.84 15.33c0.19,0.43 0.57,1.4 0.89,2.1 -3.76,0 -9.05,0.42 -12.58,-0.22 -19.46,-3.54 -33.47,-5.24 -51.79,-18.87 -1.76,-1.31 -1.97,-1.84 -3.52,-3.06 -12.76,-10.06 -24.1,-23.36 -33.94,-36.26l-15.35 -19.86c-4.56,-4.45 -9.74,-10.72 -14.6,-13.97 0.49,5.84 2.92,13.8 4.17,18.87l16.7 53.61c-3.66,-0.3 -11.22,-1.45 -14.53,-1.95 -18.19,-2.71 -22.09,-2.24 -40.26,-9.18 -1.58,-0.6 -0.85,-0.16 -2.3,-0.88 -22.64,-11.16 -39.6,-47.6 -39.58,-72.59 0.01,-6.95 1.06,-8.64 3.31,-13.16 2.05,-4.11 3.47,-6.41 6.14,-10.33 2.52,-3.7 4.64,-5.96 7.24,-9.23l14.08 -19.96c4.23,1.13 5.56,3.29 8.59,5.69 7.77,6.15 18.05,14.94 28.75,15.18 -1.57,-6.76 -1.33,-32.26 -3.29,-36.24zm-845.66 36.24c17.65,-0.39 26.51,-18.34 37.34,-20.87 1.04,3.91 12.34,17.42 15.68,21.94l4.25 5.71c0.14,0.19 0.34,0.45 0.48,0.64l1.86 2.45c0.19,0.26 0.76,1.07 0.96,1.32 15.51,20.29 2.74,53.14 -9.59,71.63 -6.32,9.47 -13,16.31 -23.5,21.53 -19.71,9.79 -42.02,8.81 -56.02,12.07 1.14,-2.37 1.57,-5.27 2.6,-8.38 1.17,-3.52 2.1,-5.69 3.25,-8.95 1.2,-3.42 1.1,-5.24 2.23,-8.64l8.22 -26.9c1.82,-6.14 4.18,-12.15 5.66,-18.52 -5.31,1.24 -4.11,1.96 -8.15,5.03l-3.69 2.92c-1.5,1.43 -2.34,2.32 -3.83,3.84 -1.75,1.77 -1.7,1.79 -3,3.59 -1.58,2.17 -1.74,2.09 -3.57,4.11l-24.13 31.88c-1.32,1.37 -2.07,1.85 -3.25,3.34 -1.56,1.99 -1.24,2.29 -3.32,4.37l-7.18 6c-6.36,6.34 -17.71,13.05 -25.9,16.94 -13.54,6.43 -28.21,9.14 -47.97,9.14 9.91,-18.73 10.44,-27.01 13.43,-46.98 0.43,-2.86 0.52,-7.26 1.09,-10.99 0.57,-3.74 0.91,-5.8 0.86,-11.22 -0.05,-6.13 0.73,-7.57 1.1,-12.08 -11.44,6.43 -29.91,52.43 -55.74,78.25 -2.46,2.46 -4.14,4.11 -6.58,6.6 -1.32,1.35 -1.92,2.06 -3.35,3.18l-1.35 0.97c-0.2,0.15 -0.48,0.33 -0.68,0.47 -12.16,8.37 -26.68,15.78 -42.12,17.07 0.47,-5.6 2.36,-8 3.56,-13.9 2.64,-13 10.01,-33.54 12.07,-42.85l13.26 -40.67c2.76,-6.91 2.64,-6.32 7.6,-11.07 2.64,-2.52 6.95,-5.23 10.37,-7.2l36.23 -18.68c7.72,-3.86 17.06,-7.78 24.1,-12.14 7.36,-4.56 5.73,-6.9 7.47,3.28 0.91,5.33 2.74,10.66 2.85,15.82 12.34,-2.87 64.63,-38.3 80.61,-48.98 9.78,-6.54 28.38,-20.65 39.09,-21.31 -3.78,3.59 -2.23,5.97 -2.18,17.58 0.03,7.11 -1.11,10.66 -1.11,18.66zm133.99 -208.67c6.94,0.16 14.13,3.68 19.79,6.57 20.58,10.49 34.25,17.51 58.19,6.62 6.27,-2.85 12.94,-7.13 18.36,-11.29 8.64,-6.61 25.12,-20.57 38.74,-20.57 1.29,5.56 2.9,9.62 3.97,15.8 2.79,16.11 3.06,50.25 4.82,57.78 7.93,-4.86 19.96,-36.55 23.73,-47.65 1.64,-4.83 3.38,-8.04 4.98,-12.6 1.54,-4.41 3.39,-9.02 5.33,-13.34 6,-13.35 13.47,-28.2 23.88,-38.73 7.97,-8.06 15.62,-13.58 25.33,-19.7 25.17,-15.86 73.13,-15.65 102.45,-9.76 10.09,2.03 17.75,5.54 25.2,9.95l20.03 15.11c11.48,11.22 19.45,24.63 25.93,39.24 0.78,1.77 0.56,1.27 1.26,2.78l20.84 49.43c1.77,4.32 2.96,7.93 4.84,12.74 1,2.57 1.5,3.43 2.44,6.34l2.61 6.18c2.61,-11.2 4.76,-21.73 6.87,-33.77 2.18,-12.46 3.02,-26.36 3.02,-38.72 9.03,0 15.67,1.83 23.46,6.2 2.89,1.62 3.53,2.67 6.41,4.57 12.51,8.24 22.04,17.67 36.97,22.34 36.36,11.36 46.61,-14.98 71.54,-15.53 0,6.27 1.1,7.6 1.1,14.28 0,11.89 0.21,26.64 -3.12,37.51 -0.99,3.24 -1.93,5.57 -3.05,9.04l-9.89 26.34c-1.75,5.27 -4.67,14.59 -4.8,20.46 6.42,-3.08 12.83,-5.77 18.69,-9.86 5.66,-3.95 9.69,-9.41 15.35,-13.2 0,21.73 -12.05,76.82 -16.71,97.51 -1.61,7.13 -4.53,14.34 -6.57,21.99 -1.84,6.88 -4.61,14.38 -6.79,21.76 -2.08,7.04 -12.76,37.8 -12.76,44.34l1.1 -107.63c-4.19,3.07 -7.34,10.96 -9.92,15.35l-28.18 46.5c-1.35,2.02 -0.52,0.8 -1.44,1.85l1.09 -23.07c0.3,-4.18 0.96,-2.85 1.15,-7.64 0.72,-18.3 2.3,-40.57 -0.86,-58.53 -0.78,-4.46 -1.03,-7.92 -2.01,-12.27 -0.97,-4.32 -2.31,-7.39 -2.67,-11.61 -3.71,2.49 -3.49,3.62 -5.49,7.69 -1.49,3.02 -3.03,5.85 -4.25,8.93l-10.16 30.48c-0.42,1.29 -0.94,3.1 -1.57,4.89l-1.98 4.85c-2.09,5.25 -5.73,15.08 -9.5,17.84 -4.48,-3 -8.44,-10.24 -10.98,-15.37 -23.01,-46.46 -27.99,-71.88 -79.07,-84.57 -22.51,-5.59 -47.73,-3.58 -69.06,3.44 -7.82,2.57 -14.52,6.16 -21.23,10.62 -14.1,9.39 -1.56,2.52 -33.37,-10.12 -29.98,-11.92 -61.27,-7.81 -90.67,2.49 -5.75,2.02 -13.46,6.11 -17.68,9.78 -2.78,2.41 -4.87,3.31 -7.14,6.03l-6.24 8.04c-11.75,15.72 -30.12,64.04 -40.16,70.76 -11.61,-21.94 -15.33,-44.86 -25.99,-66.27 -1.6,-3.22 -3.99,-6.63 -4.76,-9.51 -4.54,3.33 -4.79,13.87 -5.77,19.49 -3.68,21.06 -1.15,46.6 0.28,67.27 0.55,7.92 2.2,15.43 2.2,24.16 -4.23,-3.1 -6.69,-10.22 -9.44,-14.73l-25.62 -43.57c-2.13,-3.42 0.1,-1.94 -3.38,-3.21l0 110.93c-15.48,-11.35 -33.75,-115.19 -37.61,-138.1l-7.41 -51.9c12.69,8.5 16.54,19.71 35.14,24.16 -5.19,-22.26 -9.39,-29.75 -16.07,-49.83 -3.06,-9.19 -5.15,-24.12 -5.58,-34.9l1.88 -22.91zm652.36 5.49c0,-8.13 0.28,-11.23 4.01,-17.95 5.1,-9.2 6.64,-6.34 8.07,-11.7 2.5,0.58 2.4,0.64 4.91,1.69 4.24,1.77 5.48,3.92 9.6,10.17l16.22 24.42c1.87,3.2 3.81,5.83 5.51,8.77 12.01,20.75 7.63,21.15 1.55,36.67 -1.96,5 -4.36,13.59 -4.83,19.33 18.48,-1.54 31.6,-28.22 87.42,9.23 2.41,1.62 3.03,1.78 5.5,3.29 1.88,1.14 3.39,2.37 5.27,3.51l26.36 17.57c1.95,1.42 3.49,2.23 5.24,3.55l29.75 22.97c3.34,3.03 6.17,5.03 9.33,8.24 6.04,6.14 12.75,10.32 18.05,17.1 1.84,2.35 1.54,2.5 3.91,4.88l11.27 15.09c-11.8,-0.98 -55.1,-19.3 -66.27,-24.89 -16.56,-8.3 -23.73,-10.85 -43.18,-21.61 -2.17,-1.2 -3.93,-1.95 -5.87,-2.92 -26.52,-13.24 -70.72,-40.64 -95.55,-40.64 -4.84,0 -24.06,28.42 -27.72,32.68l-9.62 11.25c1.24,-5.33 1.99,-11.22 3.29,-16.47 1.43,-5.75 2.35,-10.82 3.73,-17.13 14.13,-64.63 -5.93,-72.24 -5.93,-97.09zm-723.75 130.69l-16.02 -19.12c-2.04,-2.75 -3.32,-4.18 -5.09,-6.99 -3.51,-5.59 -5.3,-9.59 -9.91,-14.25 -4.58,-4.63 -6.25,-6.91 -16.64,-3.99l-52.46 25.4c-0.21,0.13 -0.47,0.33 -0.69,0.47 -0.22,0.14 -0.47,0.33 -0.69,0.47l-58.84 30.11c-3.03,1.36 -5.15,2 -8.42,3.66 -17.92,9.06 -59.45,25.98 -78.34,30.38 1.87,-7.01 12.45,-16.97 17.37,-23.27 3.5,-4.47 7.04,-6.03 10.92,-9.95 8.69,-8.74 23.77,-20.68 33.65,-27.85l49.01 -33.36c14.48,-8.54 24.77,-15.74 41.25,-20.26 6.32,-1.73 11.19,-1.31 17.93,-0.57 9.59,1.05 24.86,9.22 31.95,9.81 -1.34,-2.79 -2.15,-10.82 -4.72,-17.25 -6.07,-15.18 -8.06,-23.91 0.76,-38.33l29.22 -44.36c3.34,-0.07 4,-0.5 6.59,-1.1 2.57,3.84 5.96,6.64 8.45,11.32 8.02,15.13 4.02,24.28 -0.48,40.46l-0.74 2.67c-2.84,9.51 -7.31,28.28 -5.48,38.24 1.06,5.72 0.92,12.08 1.8,17.97 1.74,11.53 9.62,40.31 9.62,49.68zm-466.76 -146.07l1.1 0 -0.91 1.28 -0.18 -1.28zm579.88 -64.8c7.15,0.59 22.87,6.02 29.3,9.12 10.56,5.09 15.12,9.22 21.22,18.33 -2.44,3.64 -16.17,13.18 -21.97,13.18l-6.59 0c-13.91,0 -21.97,-25.44 -21.97,-40.64zm474.45 40.64c-13.26,0 -20.92,-6.36 -29.65,-10.98 5.24,-9.9 11.44,-14.22 20.89,-19.75 5.34,-3.13 23.63,-9.9 31.83,-9.9 -1.52,3.16 -1.37,14.43 -5.91,25.94 -2.96,7.5 -9.63,14.7 -17.15,14.7zm224.04 -94.45l-1.1 0 0.92 -1.28 0.18 1.28zm-898.37 -1.1l0 -1.1 1.28 0.91 -1.28 0.18zm358.03 -4.39c0,9.63 -1.28,17.15 -5.92,24.83 -1.96,3.25 -2.98,4.13 -5.34,6.74l-17.73 19.61c-3.5,4.71 -8.25,8.56 -11.64,13.62 -22.72,-12.02 -42.18,-29.01 -64.14,-42.39 -5.86,-3.57 -18.11,-9.54 -24.8,-11.44 -5.18,-1.47 -7.97,-2.22 -13.93,-3.36l-15.3 -1.69c-22.8,2.31 -31.48,13.27 -39.34,33.16 -2.31,5.84 -9.26,20.3 -10.53,25.72 -4.3,-1.15 -5.3,-5.61 -6.75,-9.72 -16,-45.25 25.46,-79.67 38.6,-104.5 -25,0 -32.93,3.96 -51.62,16.47 1.92,-24.5 12.17,-43.11 29.65,-56.01 1.66,-1.22 2.04,-1.76 3.69,-2.99l20.91 -15.24c8.9,-5.94 17.42,-11.12 27.66,-15.17 7.11,-2.81 13.64,-5.57 21.38,-7.17 14.11,-2.92 26.78,-3.63 40.49,-2.17 33.56,3.56 63.36,21.78 97.86,18.62 22.82,-2.09 45.03,-11.52 57.89,-26.67 6.27,-7.38 13.65,-27.28 20.05,-31.57 1.04,1.96 1.69,3.65 2.92,5.87 1.5,2.72 1.79,2.59 3.31,5.47 6.34,12.07 12.72,23.11 24.06,30.85 12.17,8.31 41.28,17.11 59.77,17.11 39.08,0 78.06,-37.72 146.07,-9.89 6.7,2.74 12.66,4.88 19.04,8.41 11.7,6.47 22.97,14.27 32.86,23.15 3.1,2.78 4.73,4.97 6.94,7.74 0.14,0.17 0.33,0.43 0.47,0.6 11.04,13.32 21.95,26.79 21.95,47.96 -4.36,-1.02 -7.39,-3.42 -10.95,-5.53 -3.42,-2.03 -6.41,-4 -10.66,-5.82 -9.89,-4.22 -15.42,-4.03 -28.92,-4.03 1.57,5.88 19.98,29.47 25.26,37.34 4.3,6.41 7.67,12.97 11.37,20.48l5.21 13.75c3.94,13.56 4.18,33.9 -8.89,42.65 -11.01,-8.07 -14.34,-58.21 -46.13,-58.21 -26.37,0 -37.11,4.27 -58.95,15.74 -11.72,6.15 -21.49,14.14 -32.43,21.38 -8.25,5.46 -24.27,18.83 -32.73,21.09 -22.22,-33.19 -50.31,-35.62 -35.56,-84.98 1.59,-5.33 3.24,-10.5 5.25,-15.62 2.1,-5.35 3.9,-11.13 6.15,-15.82 -15.95,0 -26.62,9.71 -36.52,19.49 -7.01,6.93 -12.16,15.79 -18.09,23.64 -7.93,10.48 -6.72,6.29 -17.85,6.24 -1.5,-0.01 -4.05,0.24 -5.4,0.12 -0.32,-0.03 -0.58,-0.07 -0.89,-0.11l-4.55 -1.04c-3.73,-0.39 -8.45,0.26 -12.25,-0.02 -4.25,-0.32 -5.15,-1.14 -10.96,-1.12 -12.03,0.04 -37.28,3.31 -46.14,3.31 -5.82,-8.7 -16.76,-24.23 -23.87,-32.14 -2.3,-2.56 -4.28,-4.4 -6.87,-6.31l-7.5 -5.33c-6.75,-4.16 -14.38,-6.03 -22.17,-7.84l9.75 24.3c2.72,8.22 6.73,17.98 6.73,28.42zm-284.45 -98.84l0 1.1 -1.28 -0.91 1.28 -0.18zm-411.85 -113.12l0 -1.1 1.28 0.92 -1.28 0.18zm411.85 113.12c1.63,-6.99 5.3,-13.75 8.02,-20.53l8.45 -21.2c-4.83,0.11 -5.85,1.01 -9.55,2.53 -15.16,6.24 -10.75,4.67 -24.5,11.75 -4.95,2.55 -9.83,6.09 -14.73,9.43 -2.42,1.64 -4.78,3.36 -6.93,5.15 -1.48,1.23 -1.25,1.28 -2.94,2.55 -10.19,7.66 -25.65,23.31 -34.45,32.54 -2.54,2.67 -2.72,3.89 -5.45,6.63 -8.72,8.73 -31.31,39.04 -37.41,48.25l-25.29 36.21c-3.59,4.78 -6.95,8.84 -10.29,13.87l-9.89 14.27c-2.91,4.33 -7.31,11.32 -8.57,16.69l36.99 -20.12c2.96,-1.55 3.24,-2.14 6.2,-3.69 2.67,-1.4 4.04,-1.9 6.46,-3.43l37.34 -20.87c2.81,-1.77 10.05,-6.03 12.96,-6.81 -4.92,7.34 -53.83,54.58 -66.55,64.14 -2.45,1.84 -2.81,2.44 -5.48,4.41 -2.2,1.62 -3.51,2.61 -5.65,4.23 -9.11,6.93 -35.18,24.11 -46.28,28.41 -4.18,1.61 -8.09,3.7 -12.99,5.68 -4.79,1.93 -9.07,3.7 -13.73,4.95 -23.52,6.29 -18.95,5.23 -40.43,6.8l-27.51 1.18c-5.63,-0.04 -2.34,-0.61 -7.47,-1.15 -3.09,-0.32 -6.82,0.25 -9.97,-0.11 -30.25,-3.5 -54.83,-9.71 -81.37,-21.86 -7.34,-3.36 -35.21,-19.18 -41.43,-24.47l-35.42 -40.35c0,9.44 14.28,76.15 14.28,87.86 -7.53,-5.04 -14,-11.79 -19.58,-18.86l-22.52 -38.99c-3.83,-8.92 -11.06,-33.75 -12.57,-42.34l-3.99 -27.86c-1.16,-6.62 -1.76,-21.64 -1.75,-29 0.02,-40.37 9.79,-88.99 32.73,-123.23 7.57,-11.3 20.35,-25.24 20.51,-25.5 2.73,-4.18 5.26,-4.75 8.55,-8.04 7.28,-7.27 27.03,-22.26 40.34,-22.26 -5.72,8.55 -17.51,15.84 -36.9,47.66 -1.42,2.33 -1.72,3.38 -2.99,5.8l-5.59 10.88c-0.11,0.27 -0.22,0.56 -0.34,0.82l-7.84 18.46c-1.52,4.32 -3.16,7.75 -4.33,12.14 -9.85,36.87 -12.09,54.55 -12.3,92.04 -0.02,3.11 -0.18,5.75 0.4,8.77 0.07,0.39 0.41,1.34 0.48,1.71l0.3 1.72c0.08,0.91 -0.07,3.2 -0.07,4.28 15.09,-7.99 19.28,-34.77 36.24,-46.13 0,7.21 2.72,19.7 4.17,25.48 1.14,4.53 1.96,8.48 3.44,12.22 0.11,0.28 0.25,0.55 0.36,0.82l1.78 4.46c0.93,2.63 1.23,3.2 2.31,5.35 5.13,10.22 11.36,18.03 18.02,27.01 9.04,12.18 32.22,24.6 45.68,30.09 12.85,5.24 32.51,10.12 48.44,11.97 17.15,1.99 40.47,2.24 56.92,-1.07 3.84,-0.77 7.6,-1.37 11.72,-2.55 11.87,-3.42 21.96,-7.63 33.02,-13.11 10.09,-5 18.12,-11.7 27.39,-17.76 9.19,-6 23.04,-21.84 30.9,-30.49 1.48,-1.62 2.44,-2.18 3.79,-3.9 1.62,-2.07 1.28,-2.12 3.36,-4.33 2.53,-2.68 4.26,-5.19 6.31,-7.96 1.44,-1.95 2.04,-2.33 3.51,-4.18l61.08 -98.17c1.31,-2.08 1.52,-2.52 2.78,-4.91l5.57 -9.8c1.27,-2.09 1.77,-2.73 2.85,-4.83l28.11 -47.67c14.89,-24.51 28.98,-44.52 46.37,-66.75 5.48,-7.01 12.88,-12.97 19.15,-19.29 3.2,-3.24 4.9,-4.25 8.25,-7.13l18.2 -12.55c3.88,-2.03 5.28,-3.2 9.15,-5.13 24.98,-12.46 50.95,-22.61 78.43,-28.1 57.31,-11.45 122.42,-4.14 171.26,28.47 11.84,7.91 23.28,17.26 30.99,29.42 14.73,23.23 10.91,50.27 -1.77,71.2 -9.29,15.34 -20.73,20.52 -40.25,20.24 -7.3,-0.1 -18.09,-3.53 -23.78,-5.87 -4.07,-1.67 -6.93,-2.77 -10.98,-4.39 -15.6,-6.26 -30.03,-10 -46.94,-13.09 -23.35,-4.27 -52,-2.46 -71.15,2.2 -20.65,5.02 -35.64,12.48 -52.85,21.83 -9.58,5.21 -18.85,12.15 -27.28,18.85 -16.95,13.47 -32.08,28.48 -47.3,43.85l-16.2 14.55zm824.79 104.33c3.87,0.9 3.03,1.05 5.94,2.85 25.7,15.88 53.26,28.05 78.85,44.16 4.32,2.72 7.87,5.62 12.96,6.81 -1.49,-5.57 -64.04,-94.31 -73.14,-108.07 -1.98,-2.99 -3.16,-5.1 -5.25,-7.93 -8,-10.82 -25.35,-28.1 -36.03,-36.46l-13.42 -11.84c-4.96,-3.72 -8.77,-6.9 -13.66,-10.52 -1.4,-1.04 -1.69,-1.06 -3.14,-2.15l-11.28 -7.57c-5.27,-3.11 -9.64,-5.86 -15.41,-8.75 -4.39,-2.21 -12.58,-6.45 -18.67,-6.59 3.51,6.63 5.65,13.93 8.79,20.87l8.78 20.87c-5.41,-1.45 -29.07,-27.72 -34.3,-32.7l-24.57 -21.56c-1.99,-1.49 -2.19,-2 -4.18,-3.51 -3.2,-2.42 -4.89,-3.83 -8.04,-6.24 -21.89,-16.69 -45.37,-28.01 -72.78,-34.85 -38.18,-9.53 -80.83,-3.21 -117.68,9.74 -10.96,3.85 -23.69,9.61 -36.05,10.08 -14.9,0.56 -26.35,-1.07 -34.91,-11.3 -12.89,-15.39 -17.05,-35.51 -16.79,-59.07 0.16,-14.48 15.02,-26.57 25.74,-34.66 56.39,-42.58 113.7,-60.18 188.02,-43.93 20.25,4.43 38.31,11.13 56.8,18.98l15.7 7.36c27.24,15.89 27.91,15.82 51.99,38.45l12.62 13.65c1.04,1.2 1.06,1.03 1.99,2.1l10.26 13.22c0.14,0.17 0.34,0.42 0.48,0.59l5.47 7.34c1,1.43 1.96,3.1 3.09,4.59 16.73,22.18 28.47,47.53 43.24,70.98 2.16,3.43 3.29,6.4 5.49,9.88 11.47,18.2 21.74,40.24 33.17,59.09 7.92,13.06 14.9,24.55 23.28,37.12 2.33,3.49 3.89,5.86 6.14,9.23 7.94,11.88 17.32,23.11 26.43,33.97 10.77,12.84 25.93,26.07 39.69,36.09 18.58,13.52 41.12,23.24 64.24,26.92 23.65,3.76 52.77,3.06 76.11,-3.21l18.04 -5.01c14.88,-4.96 28.28,-11.77 40.59,-20.91 3.34,-2.48 5.59,-4.1 8.42,-6.96 19.63,-19.86 28.34,-29.27 33.31,-57.84 1.47,-8.43 2.88,-18.75 8.14,-22.61 3.84,7.26 25.67,44.3 29.65,47.23 0,-6.35 1.14,-8.31 1.1,-15.37l-2.17 -50.56c-4.45,-48.25 -25.7,-97.57 -59.61,-131.48 -3.13,-3.13 -6.16,-5.54 -8.51,-9.06 4.16,1.56 8.25,1.55 12.51,2.86 3.51,1.08 7.77,2.87 10.95,4.43 2.31,1.13 2.97,1.62 4.88,2.81 1.77,1.1 3.17,1.7 4.81,2.87 1.41,1.01 2.86,2.18 4.37,3.32 1.73,1.3 3.42,2.4 5.03,3.76 8.1,6.83 15.68,15.83 21.61,24.52 1.21,1.78 1.99,2.9 3.06,4.61l2.63 4.38c4.46,6.78 7.43,14.22 11.05,21.5 7.3,14.71 11.49,30.93 15.31,47.29 1.95,8.34 4.13,18.22 4.85,27 1.19,14.56 4.55,43.56 1.96,60.17l-1.91 16.68c-0.03,0.41 -0.05,1.59 -0.11,2.05 -1.46,11.47 -4.53,23.72 -7.78,34.07 -8.41,26.75 -22,54.45 -44.86,71.56 -2.75,2.06 -2.01,2.35 -5.51,3.28l16.22 -69.44c0.98,-4.81 1.59,-7.1 2.68,-11.59 0.86,-3.56 1.47,-9.01 3.06,-12.32 -6.81,0.57 -10.39,8.46 -14.09,13.37l-16.64 21.8c-2.73,3.7 -2.04,1.99 -5.22,4.66 -2.13,1.79 -2.37,2.42 -4.67,4.11l-17.33 12.26c-47.97,30.44 -113.92,45.35 -169.66,34.14 -38.48,-7.75 -61.66,-18.96 -92.44,-41.55l-10.24 -8.45c-0.97,-0.8 -1.31,-1.25 -2.16,-2.02l-2.96 -2.43c-7.15,-5.64 -14.92,-11.1 -21.25,-17.48 -1.9,-1.91 -3.02,-3.05 -4.93,-4.96 -5.79,-5.79 -13.01,-14.91 -19.06,-19.38 -3.72,-2.75 -16.82,-15.92 -19.11,-19.33z"/>
  <path class="fil1" d="M1737.96 1776.18c2.58,9.37 2.73,16.89 0.45,22.55 -2.28,5.67 -7.1,10.3 -14.46,13.89 8.68,-1.27 15.63,0.01 20.86,3.83 5.23,3.83 9.13,10.42 11.71,19.79l14.18 51.53c2.92,10.62 2.75,19.01 -0.52,25.17 -3.27,6.16 -10.36,10.75 -21.27,13.75l-93.15 25.64 4.63 -20.09 -50.55 -183.64 -14.25 -14.89 91.26 -25.12c10.91,-3 19.35,-2.69 25.31,0.93 5.96,3.62 10.41,10.74 13.33,21.36l12.47 45.29zm-11.85 70.12c-1.66,-6.04 -4.46,-10.47 -8.4,-13.31 -3.94,-2.83 -9.27,-3.33 -15.98,-1.48l-33.04 9.09 21.06 76.52 33.04 -9.09c6.71,-1.85 11.05,-4.95 13.01,-9.3 1.96,-4.35 2.08,-9.64 0.37,-15.89l-10.06 -36.54zm-63.96 -29.43l32.1 -8.83c6.5,-1.79 10.72,-4.91 12.66,-9.36 1.93,-4.45 2.07,-9.7 0.41,-15.73l-8.34 -30.29c-1.72,-6.25 -4.53,-10.74 -8.45,-13.47 -3.91,-2.73 -9.12,-3.2 -15.62,-1.41l-32.1 8.83 19.34 70.27zm248.83 21.88c3.66,10.39 4.03,18.79 1.1,25.2 -2.93,6.41 -9.73,11.5 -20.4,15.26l-49.87 17.58c-10.67,3.76 -19.11,4.04 -25.31,0.85 -6.2,-3.19 -11.13,-9.99 -14.8,-20.37l-58.8 -166.81 -15.57 -13.74 48.95 -17.25 -3.21 20.36 55.68 157.95c1.65,4.68 4.14,7.98 7.47,9.9 3.33,1.92 7.46,2.01 12.38,0.27l20.62 -7.27c4.93,-1.74 8.08,-4.4 9.48,-7.98 1.39,-3.58 1.26,-7.72 -0.39,-12.4l-55.68 -157.95 -15.27 -13.85 48.02 -16.93 -3.2 20.36 58.8 166.81zm24.02 -113.11l30.33 -14.5 13.15 -15.62 18.16 37.99 -20.42 0.43 -30.33 14.5 34.93 73.06 16.66 12.14 -46.82 22.39 1.01 -20.59 -82.16 -171.84 -16.66 -12.14 101.3 -48.43 18.03 37.7 -36.42 -1.26 -34.16 16.33 33.4 69.85zm104.53 -54.72l28.86 -17.25 11.65 -16.78 21.61 36.15 -20.29 2.32 -28.86 17.25 41.55 69.51 17.71 10.55 -44.54 26.63 -0.9 -20.59 -97.73 -163.49 -17.71 -10.55 96.38 -57.61 21.44 35.87 -36.38 2.12 -32.5 19.43 39.73 66.45zm218.89 -22.83l19.74 7.9 -42.12 31.43 -4.31 -19.42 -21.88 -20.05 -42.38 31.62 13.25 26.49 17.39 9.66 -41.59 31.04 -1.69 -21.37 -91.01 -192.37 36.1 -26.94 158.51 142.01zm-102.72 9.16l36.1 -26.94 -92.83 -86.74 56.73 113.68zm123.63 -30l-135.46 -133.91 -19.78 -5.79 36.49 -36.91 6.02 19.72 130.62 129.12 25.47 -25.77 10.97 -35.05 29.72 29.38 -78.02 78.92 -6.02 -19.72zm-35.31 -276.47c6.58,-9.21 13.35,-14.33 20.33,-15.36 6.98,-1.03 14.94,1.65 23.91,8.05l132.85 94.9c8.96,6.4 14.08,13.07 15.37,20 1.28,6.93 -1.36,15 -7.94,24.21l-32.06 44.89c-6.58,9.21 -13.32,14.28 -20.23,15.23 -6.91,0.95 -14.85,-1.78 -23.81,-8.18l-132.85 -94.9c-8.96,-6.4 -14.12,-13.02 -15.46,-19.87 -1.35,-6.84 1.27,-14.87 7.84,-24.08l32.06 -44.89zm33.1 24.44c-4.04,-2.89 -7.98,-4.16 -11.8,-3.82 -3.83,0.34 -7.26,2.64 -10.29,6.89l-13.66 19.12c-3.04,4.25 -4.06,8.19 -3.08,11.84 0.98,3.64 3.49,6.91 7.53,9.79l117.56 83.98c4.04,2.89 7.94,4.2 11.71,3.95 3.76,-0.25 7.16,-2.5 10.2,-6.75l13.66 -19.12c3.03,-4.25 4.09,-8.24 3.18,-11.97 -0.92,-3.73 -3.4,-7.04 -7.44,-9.93l-117.56 -83.98z"/>
  <path class="fil0 str1" d="M1536.7 1871.55c-89.49,15.67 -133.27,15.71 -229.17,15.71 -671.03,0 -1215.01,-405.98 -1215.01,-906.78 0,-500.8 543.98,-906.78 1215.01,-906.78 671.03,0 1215.01,405.98 1215.01,906.78 0,143.22 -16.57,234.76 -95.8,355.19"/>
 </g>
</svg>
