<?xml version="1.0" encoding="UTF-8"?>
<!DOCTYPE svg PUBLIC "-//W3C//DTD SVG 1.1//EN" "http://www.w3.org/Graphics/SVG/1.1/DTD/svg11.dtd">
<!-- Creator: CorelDRAW 2021 (64-Bit) -->
<svg xmlns="http://www.w3.org/2000/svg" xml:space="preserve" width="182.654mm" height="148.027mm" version="1.1" style="shape-rendering:geometricPrecision; text-rendering:geometricPrecision; image-rendering:optimizeQuality; fill-rule:evenodd; clip-rule:evenodd"
viewBox="0 0 1929.81 1563.96"
 xmlns:xlink="http://www.w3.org/1999/xlink"
 xmlns:xodm="http://www.corel.com/coreldraw/odm/2003">
 <defs>
  <style type="text/css">
   <![CDATA[
    .str0 {stroke:#00A9C0;stroke-width:44.73;stroke-linecap:round;stroke-linejoin:round;stroke-miterlimit:22.9256}
    .str1 {stroke:white;stroke-width:44.73;stroke-linecap:round;stroke-linejoin:round;stroke-miterlimit:22.9256}
    .fil0 {fill:none}
    .fil2 {fill:white}
    .fil1 {fill:white;fill-rule:nonzero}
   ]]>
  </style>
 </defs>
 <g id="Layer_x0020_1">
  <metadata id="CorelCorpID_0Corel-Layer"/>
  <path class="fil0" d="M1148.1 1428.58c-66.65,11.2 -135.98,17.11 -207.15,17.11 -519.68,0 -940.96,-315.04 -940.96,-703.67 0,-388.63 421.28,-703.67 940.96,-703.67 519.68,0 940.96,315.04 940.96,703.67 0,52.77 -6.21,104.67 -22.49,153.63 -99.28,298.62 -353.95,460.93 -711.32,532.94z"/>
  <path class="fil0" d="M1180.92 1468.4c-68.02,11.83 -138.77,18.07 -211.4,18.07 -530.36,0 -960.29,-332.76 -960.29,-743.23 0,-410.48 429.94,-743.23 960.29,-743.23 530.36,0 960.29,332.76 960.29,743.23 0,55.73 -6.34,110.55 -22.95,162.26 -101.32,315.41 -361.23,486.84 -725.94,562.9z"/>
  <path class="fil1" d="M1401.01 1449.41c1.54,4.75 1.81,8.59 0.83,11.53 -0.98,2.94 -3.25,5.39 -6.82,7.36 4.29,-0.8 7.78,-0.27 10.48,1.6 2.7,1.86 4.82,5.17 6.36,9.92l8.44 26.12c1.74,5.38 1.88,9.68 0.42,12.89 -1.46,3.21 -4.86,5.68 -10.21,7.41l-45.66 14.76 1.76 -10.36 -30.09 -93.1 -7.49 -7.37 44.73 -14.46c5.35,-1.73 9.55,-1.72 12.62,0.03 3.06,1.75 5.47,5.32 7.21,10.7l7.42 22.96zm-4.01 36.09c-0.99,-3.06 -2.5,-5.28 -4.54,-6.66 -2.04,-1.38 -4.7,-1.54 -7.99,-0.48l-16.19 5.23 12.54 38.79 16.2 -5.23c3.29,-1.06 5.37,-2.72 6.23,-4.98 0.86,-2.26 0.78,-4.97 -0.25,-8.14l-5.99 -18.53zm-32.61 -13.94l15.73 -5.09c3.19,-1.03 5.2,-2.7 6.04,-5.01 0.84,-2.31 0.77,-5 -0.22,-8.06l-4.96 -15.36c-1.02,-3.17 -2.55,-5.41 -4.57,-6.74 -2.02,-1.33 -4.62,-1.48 -7.81,-0.45l-15.73 5.08 11.51 35.63zm73.69 -11.15l15.46 39.69 7.91 6.92 -24.01 9.36 1.15 -10.45 -35.52 -91.17 -7.91 -6.92 44.1 -17.18c5.24,-2.04 9.43,-2.28 12.6,-0.71 3.16,1.57 5.77,4.98 7.82,10.25l10.93 28.06c1.85,4.75 2.47,8.8 1.86,12.13 -0.61,3.33 -2.62,6.14 -6.03,8.42l28.18 35.27 10.03 6.09 -24.92 9.71 -1.27 -9.51 -20.09 -27c-2.19,-2.96 -4.36,-4.88 -6.51,-5.77 -2.14,-0.89 -4.88,-0.69 -8.2,0.61l-5.59 2.18zm9.4 -47.77c-1.21,-3.1 -2.86,-5.26 -4.95,-6.46 -2.09,-1.21 -4.75,-1.18 -7.97,0.07l-15.25 5.94 14.08 36.13 15.25 -5.94c3.22,-1.26 5.2,-3.04 5.92,-5.34 0.72,-2.31 0.48,-5.01 -0.72,-8.11l-6.34 -16.28zm117.37 39.64l8.81 6.29 -23.87 10.55 -0.06 -10.16 -8.58 -12.58 -24.02 10.62 3.68 14.75 7.47 6.88 -23.57 10.42 1.42 -10.82 -24.21 -106.46 20.46 -9.05 62.46 89.55zm-51.12 -7.78l20.46 -9.05 -36.2 -54.22 15.74 63.27zm5.96 -90.14l26.14 -15.03 2.96 9.05 52.76 50.47 -34.92 -60.73 -8.86 -5.65 21.22 -12.2 0.29 10.58 53.41 92.9 -13.91 8 -68.84 -64.45 40.31 70.11 8.86 5.65 -21.36 12.28 -0.29 -10.58 -48.76 -84.82 -9 -5.58zm62.36 -35.53l39.28 -26.41c4.66,-3.13 8.71,-4.28 12.14,-3.45 3.43,0.84 6.72,3.6 9.88,8.3l46.79 69.6c3.16,4.69 4.47,8.79 3.96,12.28 -0.52,3.49 -3.11,6.8 -7.77,9.94l-39.28 26.41 -1.16 -10.45 -54.59 -81.2 -9.24 -5.02zm52.1 -6.76c-1.86,-2.76 -3.94,-4.5 -6.25,-5.22 -2.31,-0.72 -4.9,-0.12 -7.77,1.81l-13.58 9.13 50.69 75.4 13.58 -9.13c2.87,-1.93 4.41,-4.1 4.61,-6.51 0.2,-2.41 -0.62,-4.99 -2.48,-7.76l-38.81 -57.72zm97.39 43.85l-20.59 15.5 -1.72 -10.37 -58.84 -78.17 -9.49 -4.52 20.59 -15.5 1.72 10.37 58.84 78.17 9.49 4.52zm-68.6 -92.51l22.28 -20.31 4.84 8.2 62.4 37.91 -47.19 -51.77 -9.87 -3.61 18.09 -16.49 2.56 10.27 72.19 79.2 -11.86 10.81 -81.12 -48.09 54.47 59.77 9.87 3.61 -18.21 16.6 -2.56 -10.27 -65.91 -72.31 -9.99 -3.5zm99.9 -66.2c-1.86,-1.75 -3.76,-2.68 -5.7,-2.81 -1.94,-0.12 -3.8,0.76 -5.58,2.65l-8.34 8.85c-1.78,1.89 -2.53,3.78 -2.25,5.67 0.27,1.89 1.34,3.71 3.2,5.46l54.03 50.88c1.86,1.75 3.74,2.71 5.64,2.87 1.9,0.16 3.75,-0.7 5.52,-2.59l8 -8.5c1.78,-1.89 2.55,-3.8 2.31,-5.73 -0.24,-1.93 -1.29,-3.77 -3.14,-5.52l-20.23 -19.05 -10.12 -2.85 17.67 -18.76 3.45 9.93 23.74 22.36c4.12,3.88 6.29,7.6 6.53,11.15 0.23,3.56 -1.58,7.38 -5.43,11.47l-18.78 19.94c-3.85,4.09 -7.54,6.11 -11.07,6.05 -3.53,-0.06 -7.35,-2.02 -11.47,-5.9l-61.05 -57.5c-4.12,-3.88 -6.31,-7.57 -6.58,-11.09 -0.27,-3.52 1.52,-7.32 5.38,-11.41l18.78 -19.94c3.85,-4.09 7.56,-6.13 11.13,-6.11 3.56,0.02 7.41,1.97 11.52,5.84l18.66 17.57 -16.97 5.4 -8.84 -8.33z"/>
  <path class="fil0 str0" d="M1309.48 1495.29c-352.81,104.98 -905.55,38.12 -1148.88,-267.55"/>
  <g id="_2794100673952">
   <path class="fil2" d="M805.44 860.24l12.64 0c-3.91,23.1 0.86,49.44 14.38,60.68 9.05,-3.41 14.04,-9.47 24.03,-15.15 40.33,-22.93 54.46,-7.17 83.6,-34.39 24.7,23.04 24.18,12.27 57.88,23.28 32.56,10.63 36.91,21.38 49.71,26.39 13.72,-11.88 18.43,-38 14.59,-60.82l9.66 0 0 147.67 -266.48 0 0 -147.67zm69.86 0l9.51 0c-3.13,1.09 -6.32,0.98 -9.51,0zm-15.23 95.53c14.68,-54.3 145.52,-53.98 160.18,0 -9.86,16.05 -33.94,23.45 -59.98,23.05 -12.09,-9.21 -10.91,-12.7 -20.19,-20.64 -14.86,12.64 -8.86,24.42 -39.21,19.62 -20.06,-3.17 -32.98,-10.1 -40.81,-22.03z"/>
   <path class="fil2" d="M1173.2 1107.09c2.13,-1.74 0.43,-0 2.06,-2.17 0.1,-0.14 1.28,-2.11 1.41,-2.36 4.05,-8.03 7.38,-26.98 8.7,-36.23 2.21,-15.41 3.44,-31.66 5.36,-47.48 6.06,-49.88 8.5,-39.35 24.38,-73.36 14.07,-30.12 14.28,-2.73 15.46,-36.45l-57.08 -50.06c-10.55,15.26 -15.46,-10.38 -44.25,43.87 -4.91,9.25 -9.37,24.49 -11.89,26.52 -8.91,7.16 -38.59,16.94 -64.43,43.92 -16.04,16.75 -16.34,35.59 -36.67,26.78 -25.12,-10.89 -36.37,-47.53 -51.43,-52.81 -11.58,-4.06 -18.7,6.07 -23.78,10.66 -14.12,-9.88 -20.9,-25.62 -41.1,9.6 -10.44,18.2 -41.05,58.09 -56.75,22.29 -11.78,-26.87 -31.37,-33.6 -55.54,-47.84 -29.7,-17.5 -21.49,-5.99 -29.07,-26.23 -7.57,-20.23 -24.79,-42.72 -37.03,-56.03 -11.2,-12.18 -15.35,-4.96 -29.12,-16.32l-39.18 76.3c19.35,62.54 19.06,30.73 26.43,93.18 2.81,23.78 16.77,81.32 28.78,94.73 1,-15.2 6.44,-59.72 10.44,-73.58 2.03,4.93 4.16,35.36 5.07,41.17 5.85,37.32 19.11,88.1 43.38,108.8 -2.38,-10.51 -14.74,-64.39 -15.59,-76.34l14.07 47.62c9.33,24.21 31.02,72.58 46.09,84.94l-4.94 -52.34c20.25,14.87 44.37,97.54 78.87,100.66 14.9,1.35 19.48,2.16 30.9,9.73 5.17,-4.71 14.06,-19.62 24.3,-19.61 8.64,0.01 21.5,11.28 24.19,17.16 4.51,-1.27 4.1,-2.66 8.67,-4.51 24.78,-10.03 27.43,6.48 51.73,-20.28 12.09,-13.32 11.32,-14.31 20.86,-28.38l21.37 -50.82c0.15,0.24 0.3,23.8 0.37,23.98l0.89 2.59c1.52,6.38 0.19,17.39 0.38,22.62l11.99 -23.27c4.92,-7.17 9.18,-13.97 13.6,-22.11 8.77,-16.19 23.65,-82.51 26.54,-87.55 0.22,12.26 -5.77,65.34 -6.87,75.82 21.96,-25.52 30.34,-42.74 40.67,-82.19 2.4,-9.17 4.44,-18.85 5.16,-28.27 0.38,-4.92 6.77,-42.23 8.7,-45.31 2.7,14.55 3.47,63.11 3.91,78.95z"/>
   <circle class="fil2" cx="779.55" cy="609.07" r="13.64"/>
   <circle class="fil2" cx="1100.44" cy="609.64" r="13.64"/>
   <path class="fil2" d="M791.22 264.78l18.2 0c5.33,0.18 10.62,0.48 15.69,0.8 8.86,0.55 20,2.78 28.02,5.32 29.54,9.39 36.5,11.57 62.84,31.35l24.11 21.11c0.06,-0.14 0.29,0.24 0.44,0.37 1.69,-1.13 2.36,-1.99 4.04,-3.23l10.69 -9.5c1.85,-1.88 2.1,-1.79 3.99,-3.27 1.39,-1.09 1.95,-2.04 3.29,-3.17 1.46,-1.23 2.05,-1.47 3.63,-2.83 1.57,-1.34 2.06,-1.49 3.62,-2.84l6.08 -4.5c0.95,-0.72 0.87,-0.71 1.8,-1.36 11.11,-7.78 23.27,-13.38 36.08,-17.98l5.66 -1.71c13.94,-4.54 22.36,-4.89 35.58,-7.11l3.48 -0.67c1.93,-0.13 4.54,0.23 6.39,0.08 2.44,-0.19 -0.46,0.11 1.44,-0.22 1.88,-0.33 4.04,-0.54 6.38,-0.64l9.02 0c9.37,0.35 19.6,1.6 26.48,2.75 27.07,4.52 44.94,10.69 71.66,22.02l14.02 6.98c10,5.27 19.8,11.27 28.75,18.09 1.65,1.26 2.05,1.49 3.62,2.84l31.03 29.54c15.11,19.31 29.07,39.47 40.49,61.27 1.11,2.12 1.33,2.02 2.44,4.02 1.03,1.87 1.34,2.96 2.47,4.8l21.47 38.3 40.99 59.96c5.41,5.46 10.68,11.59 16.57,16.54 27.22,22.86 68.61,39.56 101.57,16.38 1.76,-1.24 2.47,-2.05 4.51,-3.57l5.54 -5.85c15.63,-20.85 18.2,-42.98 12.22,-68.6 -2.9,-12.44 -7.51,-24.1 -13.12,-35.33l-8.83 -15.4c-1.83,-2.76 -3.15,-4.56 -5.04,-7.07 -5.14,-6.82 -10.47,-13.9 -16.48,-19.86l-6.6 -6.83c-0.11,-0.14 -0.25,-0.33 -0.36,-0.47l-4.76 -5.21c-3.63,-3.62 -9.54,-8.55 -10.7,-13.53l19.54 -6.3c13.48,-3.44 30.86,-2.64 44.41,-0.25l9.86 2.18c10.68,2.66 21.1,6.88 30.64,12.16l10.55 6.41c7.6,4.6 13.65,10.56 20.67,15.67 9.77,7.11 21.1,21.94 27.78,31.98 6.08,9.13 12.71,20.7 16.97,31.48 2.38,6.03 4.8,11.13 6.61,17.62 1.79,6.4 3.7,12.23 4.99,18.44 5.34,25.82 7.37,57.97 3.24,86.86 -3.82,26.67 -12.14,48.94 -23.78,72.33 -9.95,20.01 -27.57,43.07 -45.49,56.26l-10.28 7.49c-1.89,1.46 -1.85,1.26 -3.94,2.52l-19.17 10.71c-3.13,1.57 -5.13,2.29 -8.34,3.78 -17.67,8.19 -35.25,11.95 -55.12,15.94 -10.11,2.03 -31.21,5.59 -42.06,5.59 0.76,3.28 4.11,9.02 5.65,12.11 18.12,36.27 15,31.75 23.41,65.42 10.18,40.78 20.6,87.98 30.22,129.69 1.16,5.02 2.9,9.58 2.9,14.87 -9.88,0 -44.01,-4.87 -55.53,-6.66 -69.99,-8.73 -135.63,-12.5 -204.55,-20.78 -12.63,-1.17 -22.38,-3.07 -29.87,-13.75 -1.67,-2.37 -9.71,-15.16 -10.11,-17.34 -0.05,-0.26 -1.13,-0.15 -1.25,-0.29l-41.86 -45.66c-8.21,-10.61 -18.5,-11.21 -30.72,-2.57l-44.73 56 -49.87 10.96 -156.32 1.93 -57.87 -12.89 -39.31 -52.98c-8.74,-11.78 -25.34,-12.63 -33.44,-2.8l-40.07 48.67 -1.62 0c-0.87,3.75 -4.65,10.23 -6.78,13.41 -6.03,8.97 -12,14.18 -23.15,16.42 -49.21,9.89 -172.83,18.92 -222.02,22.68 -16.06,1.23 -30.81,4.22 -46.86,5.64 0,-23.22 20.27,-91.29 25.37,-116.77 1.99,-9.91 3.87,-19.71 6.29,-29.25 11.5,-45.38 11.18,-30.89 25.14,-63.7 1.69,-3.98 4.23,-8.12 4.59,-12.37 -4.2,0 -8.42,-0.6 -12.45,-1.28 -49.4,-8.35 -86.13,-11.17 -125.45,-44.15 -6.85,-5.75 -13.55,-13.32 -19.38,-20.19l-11.18 -14.66c-9.2,-13.61 -8.04,-12.77 -15.89,-25.97l-7.54 -15.21c-13.65,-33.88 -18.9,-59.75 -18.9,-98.2 0,-36.75 12.99,-81.78 35.4,-111.59 4.43,-5.89 8.83,-12.24 14.06,-17.43l12.55 -11.76c17.74,-14.77 36.48,-25.76 59.76,-31.42 21.46,-5.22 46.35,-6.04 68.22,-1.64 3.22,0.65 6.51,1.57 9.49,1.82 -1.81,2.7 -2.21,3.45 -4.64,5.86 -1.96,1.93 -3.3,3.31 -5.25,5.25 -1.95,1.94 -3.31,3.3 -5.26,5.24l-18.18 22.2c-26.36,35 -50.87,83.82 -27.51,126.49 10.26,18.75 31.76,28.79 52.77,28.79 7.52,0 17.84,-2.13 23.54,-3.92 9.98,-3.14 18.91,-7.4 27.35,-13.03 2.7,-1.8 4.78,-3.38 7.49,-5.43 17.8,-13.48 32.02,-31.62 44.36,-50.13l10.51 -16.14c15.73,-24.79 29.58,-51.19 43.18,-77.15 1.81,-3.46 2.98,-5.61 4.94,-8.78 1.84,-2.97 3.26,-5.67 5.16,-8.57 3.56,-5.45 7.03,-10.62 11.01,-15.63l3.28 -4.09c7.41,-9.2 20.64,-22.84 29.98,-29.7 2.58,-1.89 4.85,-4.06 7.59,-6.13 26.76,-20.21 54.93,-36.27 87.59,-46.48 12.68,-3.96 36.26,-8.89 50.29,-9.58zm236.53 533.02c-3.12,0.26 -4.6,1.27 -8.82,0.75 -13.69,-1.68 -18.11,-1.21 -26.17,12.71 -5.52,9.55 -8.62,20.61 -9.45,31.78 -0.3,4.04 0.83,5.17 0.83,9.67 16.12,10.8 30.91,9.73 42.8,-6.46 6.91,-9.4 8.85,-11.86 14.54,-22.61 14.22,3.8 22.61,34.69 22.61,51.69 0,11.2 -3.05,28.5 -8.55,36.67 -9.92,14.74 -5.91,8.84 -30.99,-6.01 -2.21,-1.31 -3.52,-2.12 -6.21,-3.48 -9.58,-4.81 -26.6,-10.67 -36.8,-12.47 -5.88,-1.03 -10.95,-1.53 -16.6,-2.78 -7.3,-1.61 -19.82,17.19 -25.52,12.94 -2.2,-1.65 -5.75,-3.85 -7.14,-5.93 -15.76,10.55 -4.35,-9.09 -30.03,-3.94l-9.47 1.92c-0.24,0.05 -0.44,0.09 -0.68,0.14l-11.99 3.18c-0.21,0.07 -0.42,0.14 -0.63,0.22 -0.21,0.07 -0.42,0.15 -0.63,0.22 -15.08,5.27 -19.82,8.19 -32.79,17.29 -12.81,8.99 -13.62,9.8 -19.37,-0.03 -11.88,-20.31 -11.24,-49.05 -2.94,-69.93 2.6,-6.53 9.98,-18.14 16.65,-19.69l11.92 17.16c9.76,11.34 24.88,30.36 40.39,14.96 2.07,-2.05 2.54,-2.23 3.55,-5.33 5.5,-16.83 -4.92,-34.82 -11.17,-46.44 -3.92,-7.3 -7.34,-5.39 -19.66,-5.38 -9.05,0.01 -15.34,0.44 -15.34,-12.12 0,-6.91 2.7,-11.25 6.51,-15.29l1.25 -1.17c11.39,-10.14 23.16,-12.61 39.89,-12.61 12.46,0 21.28,2.5 28.24,9.05 0.14,0.13 0.31,0.3 0.45,0.43l4.89 5.69c0.1,0.13 0.25,0.31 0.35,0.43 3.61,4.33 5.97,8.57 9.67,11.05l13.73 -16.96c7.82,-10.79 25.91,-8.88 39.58,-8.88 13.37,0 36.34,11.18 36.34,25.84 0,10.87 -1.79,7.56 -3.23,13.73zm222.9 -13.73c4.74,0.4 18.4,9.29 22.62,12.11l64.61 39.57c1.18,-2.47 3.23,-13.15 3.23,-16.96 6.84,3.62 13.82,9.52 23.1,13.24 24.97,10.03 35.67,12.11 44.85,39.95 5.9,17.91 8.97,29.14 13.46,47.11 0.65,2.59 1.75,8.6 2.59,10.34 -4.38,-0.1 -12.03,-2.72 -15.46,-3.92 -38.64,-13.55 -52.22,-65.66 -65.3,-74.42l1.44 20.37c0.25,1.7 0.07,2.97 0.25,4.6 0.17,1.58 0.79,5.56 1.2,7.69 1.07,5.55 1.97,9.79 3.48,14.29l4.3 11.27c0.14,0.31 0.42,1.03 0.65,1.54 -2.77,0 -6.66,0.31 -9.25,-0.16 -14.31,-2.6 -24.61,-3.85 -38.08,-13.88 -1.3,-0.96 -1.45,-1.35 -2.59,-2.25 -9.38,-7.39 -17.72,-17.18 -24.96,-26.67l-11.29 -14.6c-3.35,-3.27 -7.16,-7.88 -10.74,-10.27 0.36,4.29 2.15,10.15 3.07,13.88l12.28 39.42c-2.69,-0.22 -8.25,-1.07 -10.68,-1.43 -13.38,-1.99 -16.24,-1.65 -29.61,-6.75 -1.16,-0.44 -0.62,-0.12 -1.69,-0.65 -16.65,-8.21 -29.12,-35.01 -29.11,-53.38 0,-5.11 0.78,-6.36 2.44,-9.68 1.51,-3.02 2.55,-4.71 4.52,-7.6 1.86,-2.72 3.41,-4.38 5.32,-6.79l10.36 -14.68c3.11,0.83 4.09,2.42 6.32,4.18 5.71,4.52 13.28,10.99 21.14,11.16 -1.16,-4.97 -0.98,-23.72 -2.42,-26.65zm-621.86 26.65c12.98,-0.29 19.49,-13.49 27.46,-15.34 0.77,2.87 9.07,12.81 11.53,16.13l3.12 4.2c0.1,0.14 0.25,0.33 0.35,0.47l1.37 1.8c0.14,0.19 0.56,0.79 0.7,0.97 11.4,14.92 2.01,39.08 -7.06,52.67 -4.65,6.97 -9.56,11.99 -17.28,15.83 -14.49,7.2 -30.9,6.48 -41.2,8.88 0.84,-1.74 1.16,-3.88 1.91,-6.16 0.86,-2.59 1.55,-4.19 2.39,-6.58 0.89,-2.52 0.81,-3.85 1.64,-6.35l6.04 -19.78c1.34,-4.52 3.07,-8.93 4.16,-13.62 -3.9,0.91 -3.02,1.44 -5.99,3.7l-2.71 2.15c-1.1,1.05 -1.72,1.71 -2.82,2.82 -1.29,1.3 -1.25,1.32 -2.21,2.64 -1.16,1.59 -1.28,1.54 -2.63,3.02l-17.75 23.44c-0.97,1.01 -1.52,1.36 -2.39,2.46 -1.15,1.47 -0.91,1.69 -2.44,3.21l-5.28 4.41c-4.68,4.66 -13.03,9.6 -19.04,12.46 -9.96,4.73 -20.74,6.72 -35.27,6.72 7.29,-13.78 7.67,-19.86 9.87,-34.54 0.31,-2.1 0.38,-5.34 0.8,-8.08 0.42,-2.75 0.67,-4.27 0.63,-8.25 -0.04,-4.51 0.53,-5.57 0.81,-8.88 -8.41,4.73 -22,38.55 -40.99,57.54 -1.81,1.81 -3.04,3.02 -4.84,4.85 -0.97,0.99 -1.41,1.51 -2.46,2.33l-0.99 0.71c-0.15,0.11 -0.35,0.24 -0.5,0.34 -8.94,6.15 -19.62,11.61 -30.98,12.55 0.34,-4.12 1.73,-5.88 2.62,-10.22 1.94,-9.56 7.36,-24.66 8.87,-31.51l9.75 -29.91c2.03,-5.08 1.94,-4.65 5.59,-8.14 1.94,-1.86 5.11,-3.84 7.63,-5.29l26.64 -13.74c5.68,-2.84 12.55,-5.72 17.72,-8.93 5.41,-3.35 4.21,-5.07 5.49,2.41 0.67,3.92 2.01,7.84 2.1,11.64 9.07,-2.11 47.53,-28.17 59.28,-36.02 7.19,-4.81 20.87,-15.18 28.75,-15.67 -2.78,2.64 -1.64,4.39 -1.6,12.93 0.02,5.23 -0.82,7.84 -0.82,13.72zm98.53 -153.45c5.1,0.11 10.39,2.71 14.55,4.83 15.14,7.71 25.18,12.87 42.79,4.87 4.61,-2.09 9.51,-5.25 13.5,-8.3 6.35,-4.86 18.47,-15.13 28.49,-15.13 0.95,4.09 2.13,7.08 2.92,11.62 2.05,11.85 2.25,36.95 3.54,42.49 5.83,-3.58 14.68,-26.88 17.45,-35.04 1.21,-3.55 2.49,-5.91 3.66,-9.26 1.13,-3.24 2.49,-6.64 3.92,-9.81 4.42,-9.81 9.9,-20.74 17.56,-28.48 5.86,-5.92 11.49,-9.99 18.62,-14.49 18.51,-11.66 53.78,-11.5 75.34,-7.18 7.42,1.49 13.05,4.07 18.53,7.32l14.73 11.11c8.44,8.25 14.3,18.11 19.07,28.86 0.58,1.3 0.41,0.93 0.93,2.04l15.32 36.35c1.3,3.18 2.18,5.83 3.56,9.37 0.74,1.89 1.1,2.52 1.8,4.66l1.92 4.54c1.92,-8.24 3.5,-15.98 5.05,-24.83 1.6,-9.16 2.22,-19.38 2.22,-28.47 6.64,0 11.53,1.35 17.25,4.56 2.13,1.19 2.6,1.97 4.72,3.36 9.2,6.06 16.21,13 27.18,16.43 26.74,8.36 34.28,-11.01 52.61,-11.42 0,4.61 0.81,5.59 0.81,10.5 0,8.74 0.15,19.59 -2.3,27.58 -0.73,2.39 -1.42,4.1 -2.24,6.64l-7.28 19.37c-1.29,3.88 -3.43,10.73 -3.53,15.05 4.72,-2.26 9.44,-4.24 13.75,-7.25 4.16,-2.91 7.12,-6.92 11.29,-9.71 0,15.98 -8.86,56.49 -12.29,71.7 -1.18,5.25 -3.33,10.55 -4.83,16.17 -1.35,5.06 -3.39,10.58 -5,16 -1.53,5.18 -9.39,27.79 -9.39,32.61l0.81 -79.15c-3.08,2.26 -5.4,8.06 -7.29,11.28l-20.72 34.19c-0.99,1.49 -0.38,0.59 -1.06,1.36l0.8 -16.96c0.22,-3.07 0.7,-2.1 0.84,-5.62 0.53,-13.46 1.69,-29.83 -0.63,-43.04 -0.58,-3.28 -0.76,-5.82 -1.47,-9.02 -0.71,-3.18 -1.7,-5.43 -1.96,-8.54 -2.73,1.83 -2.57,2.67 -4.04,5.65 -1.09,2.22 -2.23,4.3 -3.12,6.57l-7.47 22.42c-0.31,0.95 -0.69,2.28 -1.15,3.6l-1.46 3.57c-1.54,3.86 -4.21,11.09 -6.98,13.12 -3.29,-2.21 -6.21,-7.53 -8.08,-11.31 -16.92,-34.16 -20.58,-52.86 -58.14,-62.19 -16.55,-4.11 -35.1,-2.63 -50.78,2.53 -5.75,1.89 -10.68,4.53 -15.61,7.81 -10.37,6.9 -1.15,1.86 -24.54,-7.44 -22.04,-8.76 -45.05,-5.74 -66.68,1.83 -4.23,1.48 -9.89,4.5 -13,7.19 -2.05,1.77 -3.58,2.43 -5.25,4.44l-4.59 5.91c-8.64,11.56 -22.15,47.09 -29.53,52.04 -8.54,-16.13 -11.27,-32.99 -19.11,-48.73 -1.18,-2.37 -2.94,-4.88 -3.5,-7 -3.34,2.45 -3.52,10.2 -4.24,14.33 -2.71,15.49 -0.85,34.27 0.2,49.47 0.4,5.83 1.62,11.35 1.62,17.77 -3.11,-2.28 -4.92,-7.52 -6.94,-10.83l-18.84 -32.04c-1.57,-2.52 0.08,-1.43 -2.49,-2.36l0 81.57c-11.39,-8.34 -24.82,-84.71 -27.66,-101.56l-5.45 -38.16c9.33,6.25 12.16,14.49 25.84,17.77 -3.81,-16.37 -6.9,-21.88 -11.82,-36.64 -2.25,-6.76 -3.79,-17.74 -4.1,-25.66l1.38 -16.84zm479.72 4.04c0,-5.98 0.21,-8.26 2.95,-13.2 3.75,-6.76 4.88,-4.66 5.93,-8.6 1.84,0.43 1.76,0.47 3.61,1.24 3.11,1.3 4.03,2.88 7.06,7.48l11.93 17.95c1.38,2.35 2.8,4.29 4.05,6.45 8.83,15.26 5.61,15.55 1.14,26.96 -1.44,3.67 -3.2,9.99 -3.55,14.21 13.59,-1.13 23.24,-20.75 64.28,6.79 1.77,1.19 2.23,1.31 4.04,2.42 1.38,0.84 2.5,1.74 3.88,2.58l19.38 12.92c1.43,1.04 2.57,1.64 3.85,2.61l21.87 16.89c2.46,2.23 4.54,3.7 6.86,6.06 4.44,4.51 9.37,7.59 13.27,12.57 1.35,1.73 1.13,1.84 2.87,3.59l8.28 11.1c-8.67,-0.72 -40.52,-14.19 -48.73,-18.3 -12.18,-6.1 -17.45,-7.98 -31.75,-15.89 -1.59,-0.88 -2.89,-1.43 -4.31,-2.15 -19.5,-9.73 -52.01,-29.88 -70.26,-29.88 -3.56,0 -17.69,20.9 -20.39,24.03l-7.07 8.27c0.91,-3.92 1.46,-8.25 2.42,-12.11 1.05,-4.23 1.73,-7.96 2.75,-12.6 10.39,-47.53 -4.36,-53.12 -4.36,-71.39zm-532.21 96.11l-11.78 -14.06c-1.5,-2.02 -2.44,-3.07 -3.74,-5.14 -2.58,-4.11 -3.89,-7.06 -7.29,-10.48 -3.37,-3.41 -4.6,-5.08 -12.24,-2.93l-38.58 18.68c-0.16,0.1 -0.35,0.24 -0.51,0.34 -0.16,0.1 -0.35,0.24 -0.51,0.34l-43.27 22.15c-2.23,1 -3.78,1.47 -6.19,2.69 -13.18,6.66 -43.72,19.11 -57.61,22.34 1.38,-5.15 9.16,-12.48 12.77,-17.11 2.57,-3.29 5.17,-4.44 8.03,-7.31 6.39,-6.43 17.48,-15.21 24.75,-20.48l36.04 -24.53c10.65,-6.28 18.21,-11.57 30.33,-14.9 4.64,-1.27 8.23,-0.96 13.19,-0.42 7.05,0.77 18.28,6.78 23.49,7.22 -0.99,-2.05 -1.58,-7.96 -3.47,-12.68 -4.46,-11.16 -5.93,-17.58 0.56,-28.19l21.49 -32.62c2.46,-0.05 2.94,-0.36 4.85,-0.81 1.89,2.82 4.38,4.88 6.21,8.33 5.9,11.12 2.96,17.85 -0.35,29.75l-0.54 1.97c-2.09,6.99 -5.38,20.8 -4.03,28.12 0.78,4.21 0.67,8.88 1.33,13.22 1.28,8.48 7.08,29.64 7.08,36.53zm-343.23 -107.41l0.81 0 -0.67 0.94 -0.13 -0.94zm426.41 -47.65c5.26,0.44 16.82,4.43 21.55,6.71 7.77,3.74 11.12,6.78 15.6,13.48 -1.79,2.68 -11.89,9.69 -16.15,9.69l-4.85 0c-10.23,0 -16.15,-18.7 -16.15,-29.88zm348.89 29.88c-9.75,0 -15.39,-4.68 -21.81,-8.08 3.85,-7.28 8.41,-10.46 15.36,-14.52 3.93,-2.3 17.38,-7.28 23.41,-7.28 -1.12,2.33 -1.01,10.61 -4.35,19.07 -2.18,5.52 -7.08,10.81 -12.61,10.81zm164.75 -69.45l-0.81 0 0.67 -0.94 0.13 0.94zm-660.62 -0.81l0 -0.81 0.94 0.67 -0.94 0.13zm263.28 -3.23c0,7.08 -0.94,12.61 -4.35,18.26 -1.44,2.39 -2.19,3.04 -3.93,4.96l-13.04 14.42c-2.57,3.47 -6.07,6.29 -8.56,10.01 -16.71,-8.84 -31.02,-21.33 -47.17,-31.17 -4.31,-2.63 -13.32,-7.02 -18.24,-8.41 -3.81,-1.08 -5.86,-1.63 -10.24,-2.47l-11.25 -1.24c-16.77,1.7 -23.15,9.76 -28.93,24.38 -1.7,4.29 -6.81,14.93 -7.74,18.91 -3.17,-0.85 -3.89,-4.13 -4.96,-7.15 -11.76,-33.27 18.72,-58.58 28.38,-76.84 -18.38,0 -24.22,2.91 -37.96,12.11 1.41,-18.02 8.95,-31.7 21.8,-41.19 1.22,-0.9 1.5,-1.3 2.71,-2.2l15.38 -11.21c6.55,-4.36 12.81,-8.18 20.34,-11.15 5.23,-2.07 10.03,-4.1 15.72,-5.27 10.38,-2.14 19.69,-2.67 29.78,-1.6 24.68,2.62 46.59,16.02 71.97,13.69 16.78,-1.54 33.11,-8.47 42.57,-19.61 4.61,-5.43 10.04,-20.06 14.74,-23.21 0.76,1.44 1.24,2.68 2.15,4.31 1.11,2 1.32,1.9 2.43,4.03 4.66,8.87 9.35,16.99 17.69,22.69 8.95,6.11 30.36,12.58 43.95,12.58 28.74,0 57.4,-27.74 107.41,-7.27 4.92,2.01 9.31,3.59 14,6.18 8.61,4.76 16.89,10.49 24.16,17.02 2.28,2.05 3.48,3.65 5.1,5.69 0.1,0.13 0.25,0.32 0.35,0.44 8.12,9.8 16.14,19.7 16.14,35.27 -3.21,-0.75 -5.44,-2.51 -8.05,-4.06 -2.52,-1.49 -4.71,-2.94 -7.84,-4.28 -7.27,-3.11 -11.34,-2.96 -21.26,-2.96 1.15,4.33 14.69,21.67 18.58,27.46 3.16,4.71 5.64,9.54 8.36,15.06l3.83 10.11c2.9,9.97 3.08,24.92 -6.54,31.36 -8.1,-5.93 -10.54,-42.8 -33.92,-42.8 -19.39,0 -27.29,3.14 -43.35,11.57 -8.62,4.52 -15.8,10.4 -23.85,15.72 -6.07,4.02 -17.85,13.85 -24.06,15.51 -16.34,-24.41 -37,-26.19 -26.15,-62.49 1.17,-3.92 2.38,-7.72 3.86,-11.48 1.55,-3.94 2.87,-8.19 4.52,-11.63 -11.73,0 -19.57,7.14 -26.85,14.33 -5.15,5.09 -8.94,11.61 -13.3,17.39 -5.83,7.71 -4.94,4.63 -13.12,4.59 -1.1,-0 -2.98,0.17 -3.97,0.09 -0.24,-0.02 -0.43,-0.05 -0.66,-0.08l-3.35 -0.76c-2.74,-0.29 -6.21,0.19 -9.01,-0.02 -3.12,-0.23 -3.78,-0.83 -8.06,-0.82 -8.85,0.03 -27.41,2.43 -33.93,2.43 -4.28,-6.4 -12.32,-17.82 -17.55,-23.63 -1.69,-1.88 -3.15,-3.24 -5.05,-4.64l-5.51 -3.92c-4.96,-3.06 -10.57,-4.43 -16.3,-5.77l7.17 17.87c2,6.05 4.95,13.22 4.95,20.9zm-209.17 -72.68l0 0.81 -0.94 -0.67 0.94 -0.13zm-302.85 -83.18l0 -0.81 0.94 0.67 -0.94 0.13zm302.85 83.18c1.2,-5.14 3.9,-10.11 5.9,-15.1l6.21 -15.59c-3.55,0.08 -4.3,0.74 -7.02,1.86 -11.14,4.59 -7.91,3.43 -18.01,8.64 -3.64,1.88 -7.23,4.48 -10.83,6.93 -1.78,1.21 -3.52,2.47 -5.1,3.79 -1.09,0.91 -0.92,0.94 -2.16,1.87 -7.49,5.63 -18.86,17.14 -25.33,23.93 -1.87,1.96 -2,2.86 -4.01,4.88 -6.41,6.42 -23.03,28.71 -27.51,35.48l-18.6 26.63c-2.64,3.52 -5.11,6.5 -7.56,10.2l-7.27 10.5c-2.14,3.19 -5.38,8.32 -6.3,12.28l27.2 -14.8c2.18,-1.14 2.38,-1.57 4.56,-2.71 1.97,-1.03 2.97,-1.4 4.75,-2.52l27.46 -15.35c2.07,-1.3 7.39,-4.44 9.53,-5.01 -3.62,5.4 -39.58,40.14 -48.94,47.17 -1.8,1.35 -2.06,1.79 -4.03,3.24 -1.62,1.19 -2.58,1.92 -4.15,3.11 -6.7,5.1 -25.87,17.73 -34.03,20.89 -3.07,1.19 -5.95,2.72 -9.56,4.17 -3.52,1.42 -6.67,2.72 -10.09,3.64 -17.3,4.62 -13.93,3.84 -29.73,5l-20.23 0.87c-4.14,-0.03 -1.72,-0.45 -5.49,-0.84 -2.27,-0.24 -5.02,0.19 -7.33,-0.08 -22.24,-2.57 -40.32,-7.14 -59.84,-16.08 -5.4,-2.47 -25.89,-14.11 -30.47,-18l-26.05 -29.67c0,6.94 10.5,56 10.5,64.61 -5.54,-3.71 -10.29,-8.67 -14.4,-13.87l-16.56 -28.67c-2.82,-6.56 -8.14,-24.82 -9.24,-31.14l-2.93 -20.49c-0.85,-4.87 -1.29,-15.91 -1.29,-21.32 0.02,-29.69 7.2,-65.44 24.07,-90.61 5.57,-8.31 14.96,-18.56 15.09,-18.75 2.01,-3.07 3.86,-3.49 6.29,-5.91 5.35,-5.34 19.87,-16.37 29.67,-16.37 -4.21,6.29 -12.88,11.65 -27.14,35.05 -1.04,1.71 -1.27,2.48 -2.2,4.26l-4.11 8c-0.08,0.2 -0.16,0.41 -0.25,0.61l-5.77 13.57c-1.12,3.18 -2.33,5.7 -3.19,8.93 -7.25,27.11 -8.89,40.11 -9.04,67.68 -0.01,2.29 -0.14,4.23 0.29,6.45 0.05,0.29 0.3,0.99 0.36,1.26l0.22 1.26c0.06,0.67 -0.05,2.36 -0.05,3.15 11.1,-5.87 14.18,-25.57 26.65,-33.92 0,5.3 2,14.48 3.07,18.74 0.84,3.33 1.44,6.23 2.53,8.99 0.08,0.2 0.19,0.4 0.27,0.6l1.31 3.28c0.68,1.93 0.91,2.36 1.7,3.94 3.77,7.51 8.35,13.26 13.25,19.86 6.65,8.95 23.7,18.09 33.59,22.13 9.45,3.85 23.9,7.44 35.62,8.8 12.61,1.46 29.76,1.65 41.85,-0.79 2.83,-0.57 5.59,-1 8.62,-1.88 8.73,-2.51 16.15,-5.61 24.28,-9.64 7.42,-3.68 13.33,-8.6 20.14,-13.06 6.76,-4.42 16.94,-16.06 22.72,-22.42 1.09,-1.19 1.79,-1.61 2.78,-2.87 1.19,-1.52 0.94,-1.56 2.47,-3.18 1.86,-1.97 3.14,-3.82 4.64,-5.86 1.06,-1.43 1.5,-1.72 2.58,-3.08l44.91 -72.19c0.96,-1.53 1.12,-1.85 2.04,-3.61l4.1 -7.21c0.94,-1.54 1.3,-2.01 2.1,-3.55l20.67 -35.06c10.95,-18.02 21.31,-32.74 34.1,-49.08 4.03,-5.15 9.47,-9.54 14.08,-14.19 2.36,-2.38 3.6,-3.12 6.07,-5.24l13.38 -9.23c2.86,-1.49 3.88,-2.36 6.72,-3.78 18.37,-9.16 37.46,-16.63 57.67,-20.66 42.14,-8.42 90.02,-3.04 125.93,20.94 8.71,5.81 17.12,12.69 22.79,21.63 10.83,17.08 8.02,36.97 -1.3,52.35 -6.83,11.28 -15.24,15.09 -29.6,14.88 -5.37,-0.08 -13.3,-2.6 -17.49,-4.31 -3,-1.23 -5.1,-2.03 -8.08,-3.23 -11.47,-4.61 -22.09,-7.35 -34.52,-9.63 -17.17,-3.14 -38.24,-1.81 -52.32,1.62 -15.19,3.69 -26.21,9.17 -38.86,16.06 -7.04,3.83 -13.86,8.94 -20.06,13.86 -12.46,9.91 -23.59,20.95 -34.78,32.25l-11.92 10.7zm606.51 76.72c2.84,0.66 2.23,0.78 4.36,2.1 18.9,11.68 39.17,20.62 57.98,32.47 3.18,2 5.79,4.14 9.53,5.01 -1.09,-4.1 -47.09,-69.35 -53.79,-79.47 -1.46,-2.2 -2.33,-3.75 -3.86,-5.83 -5.88,-7.96 -18.64,-20.67 -26.49,-26.81l-9.86 -8.71c-3.65,-2.74 -6.45,-5.07 -10.05,-7.74 -1.03,-0.76 -1.25,-0.78 -2.31,-1.58l-8.3 -5.57c-3.88,-2.29 -7.09,-4.31 -11.33,-6.44 -3.23,-1.62 -9.25,-4.75 -13.73,-4.85 2.58,4.88 4.15,10.25 6.46,15.34l6.46 15.35c-3.98,-1.06 -21.38,-20.38 -25.22,-24.05l-18.06 -15.85c-1.47,-1.1 -1.61,-1.47 -3.08,-2.58 -2.35,-1.78 -3.59,-2.82 -5.91,-4.59 -16.1,-12.27 -33.37,-20.6 -53.52,-25.63 -28.07,-7 -59.44,-2.36 -86.53,7.16 -8.06,2.83 -17.42,7.07 -26.51,7.41 -10.96,0.41 -19.38,-0.79 -25.67,-8.31 -9.48,-11.32 -12.54,-26.11 -12.35,-43.44 0.12,-10.65 11.05,-19.54 18.93,-25.49 41.47,-31.31 83.61,-44.25 138.26,-32.3 14.89,3.26 28.17,8.19 41.77,13.95l11.54 5.41c20.03,11.68 20.52,11.63 38.23,28.27l9.28 10.04c0.77,0.88 0.78,0.76 1.46,1.54l7.54 9.72c0.1,0.13 0.25,0.31 0.35,0.43l4.02 5.4c0.73,1.05 1.44,2.28 2.27,3.38 12.31,16.31 20.93,34.95 31.8,52.19 1.59,2.52 2.42,4.7 4.04,7.27 8.44,13.39 15.99,29.59 24.39,43.45 5.82,9.61 10.96,18.05 17.12,27.3 1.71,2.57 2.86,4.31 4.52,6.79 5.84,8.74 12.74,17 19.44,24.98 7.92,9.44 19.07,19.17 29.19,26.54 13.67,9.94 30.24,17.09 47.24,19.8 17.39,2.77 38.81,2.25 55.97,-2.36l13.27 -3.69c10.94,-3.65 20.8,-8.65 29.85,-15.38 2.45,-1.82 4.11,-3.01 6.19,-5.12 14.44,-14.61 20.84,-21.53 24.5,-42.53 1.08,-6.2 2.12,-13.79 5.99,-16.62 2.82,5.34 18.88,32.58 21.8,34.73 0,-4.67 0.84,-6.11 0.81,-11.3l-1.59 -37.18c-3.27,-35.48 -18.9,-71.75 -43.84,-96.69 -2.3,-2.3 -4.53,-4.08 -6.26,-6.66 3.06,1.14 6.07,1.14 9.2,2.1 2.58,0.8 5.72,2.11 8.05,3.26 1.7,0.83 2.18,1.19 3.59,2.07 1.3,0.81 2.33,1.25 3.54,2.11 1.04,0.74 2.11,1.6 3.21,2.44 1.27,0.96 2.52,1.77 3.7,2.76 5.96,5.02 11.53,11.64 15.89,18.03 0.89,1.31 1.47,2.13 2.25,3.39l1.93 3.22c3.28,4.99 5.46,10.45 8.12,15.81 5.37,10.81 8.45,22.74 11.26,34.78 1.43,6.14 3.04,13.39 3.56,19.86 0.87,10.71 3.35,32.03 1.44,44.24l-1.4 12.26c-0.02,0.3 -0.04,1.17 -0.08,1.51 -1.07,8.44 -3.33,17.44 -5.72,25.05 -6.18,19.67 -16.18,40.04 -32.99,52.62 -2.02,1.52 -1.48,1.73 -4.05,2.41l11.93 -51.06c0.72,-3.54 1.17,-5.22 1.97,-8.53 0.63,-2.62 1.08,-6.62 2.25,-9.06 -5.01,0.42 -7.64,6.22 -10.36,9.83l-12.24 16.03c-2.01,2.72 -1.5,1.46 -3.84,3.43 -1.56,1.31 -1.74,1.78 -3.44,3.02l-12.75 9.01c-35.27,22.38 -83.77,33.35 -124.76,25.1 -28.3,-5.7 -45.34,-13.95 -67.97,-30.56l-7.53 -6.21c-0.71,-0.59 -0.96,-0.92 -1.59,-1.49l-2.18 -1.79c-5.26,-4.14 -10.97,-8.16 -15.63,-12.85 -1.39,-1.41 -2.22,-2.24 -3.62,-3.64 -4.26,-4.26 -9.57,-10.96 -14.01,-14.25 -2.73,-2.02 -12.37,-11.7 -14.05,-14.21z"/>
  </g>
  <path class="fil1" d="M1277.98 1306.13c1.9,6.89 2.01,12.42 0.33,16.59 -1.67,4.17 -5.22,7.57 -10.63,10.21 6.38,-0.93 11.49,0.01 15.34,2.82 3.84,2.81 6.72,7.66 8.61,14.55l10.43 37.89c2.15,7.81 2.02,13.98 -0.38,18.51 -2.4,4.53 -7.62,7.9 -15.64,10.11l-68.5 18.86 3.4 -14.77 -37.17 -135.04 -10.48 -10.95 67.11 -18.47c8.02,-2.21 14.23,-1.98 18.61,0.68 4.38,2.66 7.65,7.9 9.8,15.71l9.17 33.3zm-8.71 51.56c-1.22,-4.44 -3.28,-7.7 -6.18,-9.79 -2.9,-2.08 -6.81,-2.45 -11.75,-1.09l-24.3 6.69 15.49 56.27 24.3 -6.69c4.94,-1.36 8.13,-3.64 9.57,-6.84 1.44,-3.2 1.53,-7.09 0.27,-11.68l-7.4 -26.87zm-47.03 -21.64l23.6 -6.5c4.78,-1.32 7.88,-3.61 9.31,-6.89 1.42,-3.27 1.52,-7.13 0.3,-11.57l-6.13 -22.28c-1.26,-4.59 -3.33,-7.89 -6.21,-9.9 -2.88,-2.01 -6.71,-2.36 -11.49,-1.04l-23.6 6.5 14.22 51.67zm182.98 16.09c2.69,7.64 2.96,13.82 0.81,18.53 -2.16,4.72 -7.16,8.46 -15,11.22l-36.67 12.93c-7.85,2.77 -14.05,2.97 -18.61,0.63 -4.56,-2.35 -8.19,-7.34 -10.88,-14.98l-43.24 -122.66 -11.45 -10.11 35.99 -12.69 -2.36 14.97 40.94 116.15c1.22,3.44 3.05,5.87 5.49,7.28 2.45,1.41 5.48,1.48 9.11,0.2l15.17 -5.35c3.62,-1.28 5.95,-3.23 6.97,-5.87 1.02,-2.63 0.93,-5.67 -0.29,-9.12l-40.94 -116.15 -11.23 -10.19 35.31 -12.45 -2.36 14.97 43.24 122.66zm17.65 -83.2l22.3 -10.66 9.67 -11.49 13.36 27.94 -15.01 0.31 -22.3 10.66 25.69 53.73 12.25 8.93 -34.43 16.46 0.74 -15.14 -60.42 -126.36 -12.25 -8.93 74.49 -35.62 13.26 27.72 -26.78 -0.93 -25.12 12.01 24.56 51.36zm76.89 -40.2l21.22 -12.69 8.57 -12.34 15.89 26.58 -14.92 1.7 -21.22 12.69 30.56 51.11 13.02 7.76 -32.76 19.58 -0.66 -15.14 -71.87 -120.22 -13.03 -7.76 70.87 -42.37 15.77 26.38 -26.75 1.56 -23.9 14.29 29.21 48.86zm160.96 -16.79l14.52 5.81 -30.97 23.11 -3.17 -14.28 -16.09 -14.74 -31.16 23.25 9.74 19.48 12.79 7.1 -30.59 22.82 -1.24 -15.72 -66.93 -141.46 26.55 -19.81 116.56 104.43zm-75.54 6.73l26.55 -19.81 -68.26 -63.79 41.72 83.6zm90.92 -22.05l-99.61 -98.47 -14.55 -4.26 26.83 -27.14 4.42 14.5 96.05 94.95 18.73 -18.95 8.07 -25.78 21.85 21.6 -57.37 58.04 -4.42 -14.5zm-25.96 -203.3c4.84,-6.77 9.82,-10.54 14.95,-11.3 5.13,-0.76 10.99,1.21 17.58,5.92l97.69 69.78c6.59,4.71 10.36,9.61 11.3,14.71 0.94,5.1 -1,11.03 -5.84,17.8l-23.58 33.01c-4.84,6.77 -9.8,10.5 -14.88,11.2 -5.08,0.7 -10.92,-1.31 -17.51,-6.02l-97.69 -69.78c-6.59,-4.71 -10.38,-9.58 -11.37,-14.61 -0.99,-5.03 0.93,-10.94 5.77,-17.71l23.58 -33.01zm24.34 17.97c-2.97,-2.12 -5.87,-3.06 -8.68,-2.81 -2.82,0.25 -5.34,1.94 -7.57,5.06l-10.05 14.06c-2.23,3.12 -2.99,6.03 -2.27,8.7 0.72,2.68 2.57,5.08 5.54,7.2l86.45 61.75c2.97,2.12 5.84,3.09 8.61,2.91 2.77,-0.19 5.27,-1.84 7.5,-4.97l10.05 -14.06c2.23,-3.13 3.01,-6.06 2.34,-8.8 -0.68,-2.74 -2.5,-5.18 -5.47,-7.3l-86.45 -61.75z"/>
  <path class="fil0 str1" d="M1130.02 1376.25c-65.81,11.53 -98,11.56 -168.52,11.56 -493.44,0 -893.46,-298.54 -893.46,-666.8 0,-368.27 400.02,-666.81 893.46,-666.81 493.44,0 893.46,298.54 893.46,666.81 0,105.32 -12.19,172.63 -70.45,261.19"/>
 </g>
</svg>
